<svg xmlns="http://www.w3.org/2000/svg" width="400" height="400" viewBox="0 0 400 400">
<defs><linearGradient id="kog" x1="0" y1="0" x2="1" y2="1"><stop offset="0" stop-color="#5F5E5B"></stop><stop offset="0.5" stop-color="#3D3C3A"></stop><stop offset="1" stop-color="#222120"></stop></linearGradient><radialGradient id="kobg" cx="0.38" cy="0.34" r="0.75"><stop offset="0" stop-color="#6A6864"></stop><stop offset="0.55" stop-color="#403F3C"></stop><stop offset="1" stop-color="#1F1E1D"></stop></radialGradient><filter id="kofz" x="-10%" y="-10%" width="120%" height="120%"><feTurbulence type="fractalNoise" baseFrequency="0.9" numOctaves="2" seed="3" result="n"></feTurbulence><feDisplacementMap in="SourceGraphic" in2="n" scale="4" xChannelSelector="R" yChannelSelector="G"></feDisplacementMap></filter><filter id="kogr" x="-10%" y="-10%" width="120%" height="120%"><feTurbulence type="fractalNoise" baseFrequency="1.6" numOctaves="2" seed="7" result="t"></feTurbulence><feColorMatrix in="t" type="matrix" values="0 0 0 0 0.62 0 0 0 0 0.61 0 0 0 0 0.59 0 0 0 0.55 -0.22" result="w"></feColorMatrix><feComposite in="w" in2="SourceGraphic" operator="in" result="wi"></feComposite><feMerge><feMergeNode in="SourceGraphic"></feMergeNode><feMergeNode in="wi"></feMergeNode></feMerge></filter><filter id="kosh" x="-20%" y="-20%" width="140%" height="140%"><feGaussianBlur stdDeviation="4"></feGaussianBlur></filter></defs><ellipse cx="200" cy="326" rx="140" ry="25.2" fill="#000000" opacity="0.22" filter="url(#kosh)"></ellipse><path d="M170.3 213.1 L167.6 214.0 L164.9 215.9 L162.1 218.2 L158.9 220.8 L155.4 223.7 L152.1 226.9 L149.2 230.6 L146.4 234.5 L143.3 238.0 L140.5 241.5 L138.3 245.2 L135.9 249.0 L132.8 252.6 L129.4 256.2 L126.3 260.2 L123.3 264.2 L120.0 267.8 L116.7 270.9 L113.8 273.8 L111.7 276.7 L110.0 279.1 L112.7 279.9 L110.8 280.2 L108.7 274.5 L105.3 274.6 L103.8 283.4 L110.6 289.4 L117.0 287.2 L120.0 285.4 L123.2 283.0 L126.2 279.8 L129.1 276.0 L132.4 272.3 L136.0 268.6 L139.6 264.9 L142.7 261.0 L145.7 257.3 L149.1 254.3 L152.4 251.3 L155.4 247.6 L158.2 243.7 L161.3 240.0 L164.2 236.1 L166.4 232.0 L168.3 227.9 L169.9 224.1 L171.3 220.7 L172.4 217.7 L172.6 214.8Z" transform="translate(3 6)" fill="#000000" opacity="0.26" fill-rule="evenodd" filter="url(#kosh)"></path><g filter="url(#kofz)"><path d="M170.3 213.1 L167.6 214.0 L164.9 215.9 L162.1 218.2 L158.9 220.8 L155.4 223.7 L152.1 226.9 L149.2 230.6 L146.4 234.5 L143.3 238.0 L140.5 241.5 L138.3 245.2 L135.9 249.0 L132.8 252.6 L129.4 256.2 L126.3 260.2 L123.3 264.2 L120.0 267.8 L116.7 270.9 L113.8 273.8 L111.7 276.7 L110.0 279.1 L112.7 279.9 L110.8 280.2 L108.7 274.5 L105.3 274.6 L103.8 283.4 L110.6 289.4 L117.0 287.2 L120.0 285.4 L123.2 283.0 L126.2 279.8 L129.1 276.0 L132.4 272.3 L136.0 268.6 L139.6 264.9 L142.7 261.0 L145.7 257.3 L149.1 254.3 L152.4 251.3 L155.4 247.6 L158.2 243.7 L161.3 240.0 L164.2 236.1 L166.4 232.0 L168.3 227.9 L169.9 224.1 L171.3 220.7 L172.4 217.7 L172.6 214.8Z" fill="url(#kog)" fill-rule="evenodd" filter="url(#kogr)"></path></g><path d="M168.1 216.5 L166.0 219.3 L163.6 222.5 L160.9 226.0 L158.1 229.7 L155.3 233.5 L152.3 237.3 L149.4 241.0 L146.5 244.6 L143.7 248.0 L140.8 251.3 L137.7 255.0 L134.5 258.8 L131.2 262.6 L127.9 266.4 L124.6 270.1 L121.4 273.5 L118.5 276.6 L115.9 279.2 L113.5 281.3 L111.6 282.8" fill="none" stroke="#9A9893" stroke-width="2.1" stroke-linecap="round" opacity="0.4" filter="url(#kofz)"></path><g fill="none" stroke="#3A3937" stroke-width="1.1" stroke-linecap="round" opacity="0.85"><path d="M113.5 283.2 Q113.4 278.3 111.1 276.1"></path><path d="M118.5 278.4 Q116.7 278.6 111.9 281.2"></path><path d="M149.4 242.8 Q148.9 237.2 149.1 231.9"></path><path d="M118.5 278.4 Q120.0 283.6 118.0 291.6"></path><path d="M155.3 235.3 Q154.4 239.5 152.8 244.8"></path></g><path d="M178.8 211.6 L176.2 213.2 L173.8 215.5 L171.1 218.3 L168.4 221.9 L166.0 226.0 L163.5 230.5 L161.1 235.4 L159.1 240.6 L157.6 246.1 L156.8 250.0 L155.8 254.0 L154.5 258.3 L153.1 262.7 L152.1 267.3 L151.5 272.0 L151.6 276.7 L152.0 281.4 L151.5 285.8 L150.3 289.8 L149.1 293.4 L148.3 296.6 L147.9 299.3 L148.0 300.5 L145.8 305.0 L143.8 306.7 L140.1 307.9 L137.0 309.7 L137.2 312.8 L140.3 314.3 L145.5 315.6 L153.0 313.8 L158.9 307.4 L160.9 303.5 L162.2 300.1 L163.0 296.3 L163.4 292.1 L163.5 287.7 L164.4 283.3 L166.2 278.8 L167.6 274.3 L168.3 269.7 L168.8 265.2 L168.8 260.8 L169.1 256.7 L169.8 253.1 L170.8 250.0 L172.5 245.3 L174.3 240.7 L176.0 236.1 L177.7 231.6 L179.4 227.4 L180.7 223.3 L181.5 219.5 L182.0 216.1 L181.7 213.0Z" transform="translate(3 6)" fill="#000000" opacity="0.26" fill-rule="evenodd" filter="url(#kosh)"></path><g filter="url(#kofz)"><path d="M178.8 211.6 L176.2 213.2 L173.8 215.5 L171.1 218.3 L168.4 221.9 L166.0 226.0 L163.5 230.5 L161.1 235.4 L159.1 240.6 L157.6 246.1 L156.8 250.0 L155.8 254.0 L154.5 258.3 L153.1 262.7 L152.1 267.3 L151.5 272.0 L151.6 276.7 L152.0 281.4 L151.5 285.8 L150.3 289.8 L149.1 293.4 L148.3 296.6 L147.9 299.3 L148.0 300.5 L145.8 305.0 L143.8 306.7 L140.1 307.9 L137.0 309.7 L137.2 312.8 L140.3 314.3 L145.5 315.6 L153.0 313.8 L158.9 307.4 L160.9 303.5 L162.2 300.1 L163.0 296.3 L163.4 292.1 L163.5 287.7 L164.4 283.3 L166.2 278.8 L167.6 274.3 L168.3 269.7 L168.8 265.2 L168.8 260.8 L169.1 256.7 L169.8 253.1 L170.8 250.0 L172.5 245.3 L174.3 240.7 L176.0 236.1 L177.7 231.6 L179.4 227.4 L180.7 223.3 L181.5 219.5 L182.0 216.1 L181.7 213.0Z" fill="url(#kog)" fill-rule="evenodd" filter="url(#kogr)"></path></g><path d="M177.6 215.7 L175.9 219.0 L173.9 222.8 L171.8 227.0 L169.7 231.5 L167.7 236.2 L165.8 241.2 L164.2 246.2 L163.3 249.7 L162.4 253.6 L161.7 257.7 L160.9 262.1 L160.2 266.7 L159.5 271.3 L158.9 275.9 L158.2 280.5 L157.5 284.9 L156.8 289.1 L156.1 293.0 L155.3 296.5 L154.4 299.6 L153.5 302.1 L149.4 307.6 L144.6 309.3" fill="none" stroke="#9A9893" stroke-width="2.1" stroke-linecap="round" opacity="0.4" filter="url(#kofz)"></path><g fill="none" stroke="#3A3937" stroke-width="1.1" stroke-linecap="round" opacity="0.85"><path d="M155.3 298.3 Q151.2 297.2 145.7 294.3"></path><path d="M175.9 220.8 Q181.2 220.6 184.5 218.9"></path><path d="M173.9 224.6 Q170.3 222.1 170.3 215.8"></path><path d="M163.3 251.5 Q163.7 245.6 165.5 240.6"></path><path d="M165.8 243.0 Q163.4 249.9 162.1 256.2"></path></g><path d="M189.4 212.5 L186.9 214.1 L185.3 216.5 L184.0 219.5 L182.6 223.0 L181.2 226.9 L179.7 231.3 L178.1 236.0 L176.5 241.2 L175.1 246.7 L174.2 250.0 L173.0 253.6 L171.9 257.5 L171.4 261.9 L171.0 266.6 L170.1 271.2 L168.7 275.9 L167.6 280.6 L166.4 285.3 L165.1 289.9 L164.2 294.3 L163.7 298.5 L163.4 302.5 L163.2 306.1 L163.2 309.3 L163.3 312.0 L164.1 312.9 L169.9 314.6 L169.8 305.6 L166.8 305.2 L164.0 314.1 L170.6 317.0 L172.3 313.9 L173.6 311.5 L174.8 308.5 L176.1 305.1 L177.4 301.4 L178.6 297.2 L179.4 292.8 L180.0 288.1 L180.8 283.4 L181.6 278.6 L182.2 273.8 L183.2 269.1 L184.8 264.8 L186.1 260.6 L186.7 256.6 L187.1 252.9 L187.7 249.7 L188.9 244.2 L189.9 239.1 L190.9 234.3 L191.9 230.0 L192.8 226.0 L193.5 222.4 L194.0 219.1 L194.0 216.2 L192.8 213.5Z" transform="translate(3 6)" fill="#000000" opacity="0.26" fill-rule="evenodd" filter="url(#kosh)"></path><g filter="url(#kofz)"><path d="M189.4 212.5 L186.9 214.1 L185.3 216.5 L184.0 219.5 L182.6 223.0 L181.2 226.9 L179.7 231.3 L178.1 236.0 L176.5 241.2 L175.1 246.7 L174.2 250.0 L173.0 253.6 L171.9 257.5 L171.4 261.9 L171.0 266.6 L170.1 271.2 L168.7 275.9 L167.6 280.6 L166.4 285.3 L165.1 289.9 L164.2 294.3 L163.7 298.5 L163.4 302.5 L163.2 306.1 L163.2 309.3 L163.3 312.0 L164.1 312.9 L169.9 314.6 L169.8 305.6 L166.8 305.2 L164.0 314.1 L170.6 317.0 L172.3 313.9 L173.6 311.5 L174.8 308.5 L176.1 305.1 L177.4 301.4 L178.6 297.2 L179.4 292.8 L180.0 288.1 L180.8 283.4 L181.6 278.6 L182.2 273.8 L183.2 269.1 L184.8 264.8 L186.1 260.6 L186.7 256.6 L187.1 252.9 L187.7 249.7 L188.9 244.2 L189.9 239.1 L190.9 234.3 L191.9 230.0 L192.8 226.0 L193.5 222.4 L194.0 219.1 L194.0 216.2 L192.8 213.5Z" fill="url(#kog)" fill-rule="evenodd" filter="url(#kogr)"></path></g><path d="M189.6 216.0 L188.7 219.1 L187.7 222.7 L186.5 226.6 L185.3 231.0 L184.0 235.7 L182.7 240.9 L181.4 246.4 L180.6 249.6 L179.8 253.2 L179.0 257.2 L178.1 261.5 L177.1 266.0 L176.2 270.7 L175.2 275.4 L174.2 280.2 L173.2 284.9 L172.3 289.5 L171.4 293.9 L170.5 298.1 L169.7 302.0 L169.0 305.5 L168.4 308.6 L167.8 311.1 L167.4 313.1" fill="none" stroke="#9A9893" stroke-width="2.1" stroke-linecap="round" opacity="0.4" filter="url(#kofz)"></path><g fill="none" stroke="#3A3937" stroke-width="1.1" stroke-linecap="round" opacity="0.85"><path d="M170.5 299.9 Q167.7 305.5 168.2 309.3"></path><path d="M186.5 228.4 Q184.7 225.3 179.0 220.9"></path><path d="M167.8 313.0 Q169.9 309.2 171.4 301.8"></path><path d="M185.3 232.8 Q187.5 236.8 190.1 240.0"></path><path d="M170.5 299.9 Q168.2 293.1 163.1 288.8"></path></g><path d="M201.4 213.6 L199.8 215.9 L198.7 218.8 L197.7 222.3 L196.8 226.4 L195.6 231.2 L194.3 236.6 L194.3 242.7 L194.9 249.3 L195.2 252.9 L195.6 256.8 L196.2 260.9 L197.0 265.4 L198.1 269.9 L199.0 274.7 L199.4 279.7 L199.9 284.7 L200.8 289.6 L202.0 294.3 L202.6 299.0 L203.1 303.4 L204.2 307.5 L205.9 311.1 L207.2 314.4 L207.8 317.3 L208.5 318.3 L207.9 323.9 L206.7 323.3 L205.4 326.3 L212.2 329.1 L216.8 320.3 L217.1 316.3 L217.1 313.1 L217.3 309.5 L217.9 305.3 L217.6 301.0 L216.6 296.6 L215.6 291.9 L215.1 287.0 L214.3 282.1 L213.0 277.3 L211.7 272.5 L211.0 267.8 L210.6 263.2 L210.1 258.9 L209.5 254.9 L208.9 251.3 L208.5 248.2 L208.3 242.1 L208.0 236.7 L207.1 231.7 L206.4 227.2 L206.3 223.2 L206.1 219.6 L205.7 216.5 L204.4 213.8Z" transform="translate(3 6)" fill="#000000" opacity="0.26" fill-rule="evenodd" filter="url(#kosh)"></path><g filter="url(#kofz)"><path d="M201.4 213.6 L199.8 215.9 L198.7 218.8 L197.7 222.3 L196.8 226.4 L195.6 231.2 L194.3 236.6 L194.3 242.7 L194.9 249.3 L195.2 252.9 L195.6 256.8 L196.2 260.9 L197.0 265.4 L198.1 269.9 L199.0 274.7 L199.4 279.7 L199.9 284.7 L200.8 289.6 L202.0 294.3 L202.6 299.0 L203.1 303.4 L204.2 307.5 L205.9 311.1 L207.2 314.4 L207.8 317.3 L208.5 318.3 L207.9 323.9 L206.7 323.3 L205.4 326.3 L212.2 329.1 L216.8 320.3 L217.1 316.3 L217.1 313.1 L217.3 309.5 L217.9 305.3 L217.6 301.0 L216.6 296.6 L215.6 291.9 L215.1 287.0 L214.3 282.1 L213.0 277.3 L211.7 272.5 L211.0 267.8 L210.6 263.2 L210.1 258.9 L209.5 254.9 L208.9 251.3 L208.5 248.2 L208.3 242.1 L208.0 236.7 L207.1 231.7 L206.4 227.2 L206.3 223.2 L206.1 219.6 L205.7 216.5 L204.4 213.8Z" fill="url(#kog)" fill-rule="evenodd" filter="url(#kogr)"></path></g><path d="M202.4 217.4 L202.0 220.9 L201.6 225.0 L201.3 229.6 L201.2 234.8 L201.3 240.6 L201.7 246.9 L202.1 250.2 L202.5 254.0 L203.1 258.1 L203.8 262.5 L204.6 267.1 L205.4 271.8 L206.2 276.7 L207.1 281.6 L208.0 286.5 L208.8 291.3 L209.6 295.9 L210.4 300.4 L211.0 304.6 L211.6 308.5 L212.1 311.9 L212.5 315.0 L212.7 317.5" fill="none" stroke="#9A9893" stroke-width="2.1" stroke-linecap="round" opacity="0.4" filter="url(#kofz)"></path><g fill="none" stroke="#3A3937" stroke-width="1.1" stroke-linecap="round" opacity="0.85"><path d="M211.6 310.3 Q208.1 306.9 207.5 302.9"></path><path d="M210.4 302.2 Q207.9 296.2 205.0 289.6"></path><path d="M202.1 252.1 Q198.5 250.7 195.4 250.8"></path><path d="M211.0 306.4 Q208.6 307.9 202.7 308.4"></path><path d="M202.4 219.2 Q207.5 218.4 212.8 213.6"></path></g><path d="M208.3 213.4 L207.7 216.1 L208.1 219.1 L208.4 222.6 L208.8 226.5 L209.5 230.5 L210.5 234.8 L211.4 239.3 L212.3 244.0 L213.0 249.1 L213.1 252.1 L213.2 255.7 L213.8 259.7 L214.9 264.0 L215.3 268.6 L214.7 273.4 L213.9 278.3 L213.9 283.2 L214.5 288.0 L215.3 292.7 L215.6 297.1 L215.5 301.2 L215.6 305.1 L216.6 308.4 L217.9 311.3 L219.6 315.2 L227.1 318.9 L232.9 313.2 L236.1 306.7 L237.1 302.0 L234.1 300.1 L230.2 303.1 L226.4 308.4 L224.9 310.4 L227.1 309.7 L227.9 309.6 L228.5 307.2 L229.0 304.2 L228.7 300.7 L228.3 296.7 L228.5 292.4 L229.1 287.8 L229.7 283.0 L229.5 278.2 L228.6 273.3 L227.9 268.4 L228.1 263.6 L228.8 259.0 L229.0 254.7 L228.6 250.7 L227.9 246.9 L226.8 241.2 L225.5 235.8 L223.8 230.8 L222.0 226.3 L219.9 222.4 L217.5 219.1 L215.4 216.3 L213.7 214.0 L211.6 212.3Z" transform="translate(3 6)" fill="#000000" opacity="0.26" fill-rule="evenodd" filter="url(#kosh)"></path><g filter="url(#kofz)"><path d="M208.3 213.4 L207.7 216.1 L208.1 219.1 L208.4 222.6 L208.8 226.5 L209.5 230.5 L210.5 234.8 L211.4 239.3 L212.3 244.0 L213.0 249.1 L213.1 252.1 L213.2 255.7 L213.8 259.7 L214.9 264.0 L215.3 268.6 L214.7 273.4 L213.9 278.3 L213.9 283.2 L214.5 288.0 L215.3 292.7 L215.6 297.1 L215.5 301.2 L215.6 305.1 L216.6 308.4 L217.9 311.3 L219.6 315.2 L227.1 318.9 L232.9 313.2 L236.1 306.7 L237.1 302.0 L234.1 300.1 L230.2 303.1 L226.4 308.4 L224.9 310.4 L227.1 309.7 L227.9 309.6 L228.5 307.2 L229.0 304.2 L228.7 300.7 L228.3 296.7 L228.5 292.4 L229.1 287.8 L229.7 283.0 L229.5 278.2 L228.6 273.3 L227.9 268.4 L228.1 263.6 L228.8 259.0 L229.0 254.7 L228.6 250.7 L227.9 246.9 L226.8 241.2 L225.5 235.8 L223.8 230.8 L222.0 226.3 L219.9 222.4 L217.5 219.1 L215.4 216.3 L213.7 214.0 L211.6 212.3Z" fill="url(#kog)" fill-rule="evenodd" filter="url(#kogr)"></path></g><path d="M211.7 215.9 L213.0 219.1 L214.3 222.6 L215.7 226.6 L217.1 231.0 L218.4 235.7 L219.6 240.8 L220.5 246.2 L220.8 249.5 L221.1 253.4 L221.3 257.5 L221.5 262.0 L221.6 266.7 L221.7 271.5 L221.7 276.4 L221.8 281.3 L221.8 286.1 L221.9 290.7 L222.0 295.1 L222.1 299.1 L222.3 302.8 L222.6 306.0 L222.9 308.6 L223.3 310.6 L226.0 312.8 L229.7 309.0" fill="none" stroke="#9A9893" stroke-width="2.1" stroke-linecap="round" opacity="0.4" filter="url(#kofz)"></path><g fill="none" stroke="#3A3937" stroke-width="1.1" stroke-linecap="round" opacity="0.85"><path d="M221.9 292.5 Q223.0 287.7 220.9 285.5"></path><path d="M223.3 312.4 Q218.5 309.8 217.3 310.6"></path><path d="M215.7 228.4 Q214.3 223.9 216.0 217.5"></path><path d="M221.1 255.2 Q226.8 254.7 231.4 253.2"></path><path d="M222.9 310.4 Q224.8 304.0 229.3 298.5"></path></g><path d="M218.3 213.6 L218.3 216.3 L219.4 219.0 L220.9 222.1 L222.4 225.6 L223.7 229.7 L224.8 234.1 L226.5 238.4 L229.0 242.3 L231.6 246.2 L234.1 250.2 L236.3 254.2 L238.0 257.5 L240.0 261.1 L242.4 264.9 L244.3 269.0 L246.0 273.4 L247.7 277.9 L250.0 282.1 L252.5 286.1 L254.3 290.2 L255.5 294.3 L256.9 298.0 L258.6 301.1 L260.5 303.6 L262.2 305.5 L265.2 310.6 L269.2 307.6 L266.6 310.1 L272.2 308.6 L270.7 302.1 L270.4 299.3 L269.8 296.2 L268.7 292.8 L266.9 289.3 L264.7 285.6 L262.9 281.4 L261.6 276.9 L259.9 272.4 L257.7 268.1 L255.4 263.9 L253.5 259.6 L252.0 255.3 L250.4 251.4 L248.6 247.9 L246.4 243.5 L244.2 239.1 L242.1 234.7 L239.7 230.5 L236.7 226.8 L233.1 223.8 L230.0 220.8 L227.5 217.9 L225.3 215.3 L223.4 213.2 L221.0 211.9Z" transform="translate(3 6)" fill="#000000" opacity="0.26" fill-rule="evenodd" filter="url(#kosh)"></path><g filter="url(#kofz)"><path d="M218.3 213.6 L218.3 216.3 L219.4 219.0 L220.9 222.1 L222.4 225.6 L223.7 229.7 L224.8 234.1 L226.5 238.4 L229.0 242.3 L231.6 246.2 L234.1 250.2 L236.3 254.2 L238.0 257.5 L240.0 261.1 L242.4 264.9 L244.3 269.0 L246.0 273.4 L247.7 277.9 L250.0 282.1 L252.5 286.1 L254.3 290.2 L255.5 294.3 L256.9 298.0 L258.6 301.1 L260.5 303.6 L262.2 305.5 L265.2 310.6 L269.2 307.6 L266.6 310.1 L272.2 308.6 L270.7 302.1 L270.4 299.3 L269.8 296.2 L268.7 292.8 L266.9 289.3 L264.7 285.6 L262.9 281.4 L261.6 276.9 L259.9 272.4 L257.7 268.1 L255.4 263.9 L253.5 259.6 L252.0 255.3 L250.4 251.4 L248.6 247.9 L246.4 243.5 L244.2 239.1 L242.1 234.7 L239.7 230.5 L236.7 226.8 L233.1 223.8 L230.0 220.8 L227.5 217.9 L225.3 215.3 L223.4 213.2 L221.0 211.9Z" fill="url(#kog)" fill-rule="evenodd" filter="url(#kogr)"></path></g><path d="M222.4 215.4 L224.2 218.2 L226.2 221.4 L228.4 224.9 L230.7 228.7 L233.1 232.6 L235.5 236.7 L237.9 240.9 L240.2 245.0 L242.5 249.2 L244.2 252.6 L246.0 256.4 L247.9 260.4 L249.9 264.6 L251.9 268.9 L253.8 273.3 L255.8 277.7 L257.7 281.9 L259.5 286.1 L261.2 290.0 L262.8 293.6 L264.2 296.8 L265.4 299.6 L266.5 302.0" fill="none" stroke="#9A9893" stroke-width="2.1" stroke-linecap="round" opacity="0.4" filter="url(#kofz)"></path><g fill="none" stroke="#3A3937" stroke-width="1.1" stroke-linecap="round" opacity="0.85"><path d="M253.8 275.1 Q249.1 277.6 242.6 280.0"></path><path d="M222.4 217.2 Q225.1 220.5 225.7 223.1"></path><path d="M228.4 226.7 Q231.9 223.8 238.6 219.8"></path><path d="M257.7 283.8 Q257.4 289.0 253.3 290.3"></path><path d="M240.2 246.9 Q238.5 251.9 235.1 257.1"></path></g><path d="M227.5 215.2 L227.5 218.5 L228.8 221.7 L230.8 224.9 L233.4 228.2 L236.2 231.7 L239.2 235.4 L242.3 239.0 L244.9 242.9 L247.4 246.6 L250.2 249.6 L252.5 252.0 L254.8 255.8 L256.5 260.0 L258.6 264.3 L261.1 268.6 L262.9 273.0 L264.3 277.6 L267.1 281.6 L272.4 284.5 L279.6 284.6 L285.9 281.9 L291.0 278.1 L294.8 274.3 L296.8 271.0 L295.0 268.2 L291.0 268.7 L286.3 271.1 L281.6 273.4 L278.1 274.4 L276.7 273.4 L277.8 272.5 L276.7 270.7 L274.6 267.9 L273.0 263.9 L271.9 259.0 L270.1 253.9 L267.4 248.9 L264.3 244.2 L262.1 240.4 L259.5 236.7 L256.1 233.3 L252.5 230.0 L249.1 226.5 L245.8 223.1 L242.5 219.9 L239.3 217.0 L236.3 214.8 L233.3 213.3 L230.1 212.9Z" transform="translate(3 6)" fill="#000000" opacity="0.26" fill-rule="evenodd" filter="url(#kosh)"></path><g filter="url(#kofz)"><path d="M227.5 215.2 L227.5 218.5 L228.8 221.7 L230.8 224.9 L233.4 228.2 L236.2 231.7 L239.2 235.4 L242.3 239.0 L244.9 242.9 L247.4 246.6 L250.2 249.6 L252.5 252.0 L254.8 255.8 L256.5 260.0 L258.6 264.3 L261.1 268.6 L262.9 273.0 L264.3 277.6 L267.1 281.6 L272.4 284.5 L279.6 284.6 L285.9 281.9 L291.0 278.1 L294.8 274.3 L296.8 271.0 L295.0 268.2 L291.0 268.7 L286.3 271.1 L281.6 273.4 L278.1 274.4 L276.7 273.4 L277.8 272.5 L276.7 270.7 L274.6 267.9 L273.0 263.9 L271.9 259.0 L270.1 253.9 L267.4 248.9 L264.3 244.2 L262.1 240.4 L259.5 236.7 L256.1 233.3 L252.5 230.0 L249.1 226.5 L245.8 223.1 L242.5 219.9 L239.3 217.0 L236.3 214.8 L233.3 213.3 L230.1 212.9Z" fill="url(#kog)" fill-rule="evenodd" filter="url(#kogr)"></path></g><path d="M232.5 216.4 L235.1 219.2 L237.9 222.2 L241.0 225.6 L244.2 229.1 L247.4 232.7 L250.5 236.3 L253.5 239.8 L256.1 243.2 L258.4 246.3 L261.1 250.5 L263.3 255.1 L265.2 259.8 L267.0 264.4 L268.7 268.6 L270.5 272.3 L272.4 275.2 L274.6 277.1 L278.9 277.7 L283.8 275.8 L288.7 272.8" fill="none" stroke="#9A9893" stroke-width="2.1" stroke-linecap="round" opacity="0.4" filter="url(#kofz)"></path><g fill="none" stroke="#3A3937" stroke-width="1.1" stroke-linecap="round" opacity="0.85"><path d="M261.1 252.4 Q261.1 257.1 263.5 263.6"></path><path d="M253.5 241.6 Q254.9 240.4 259.7 238.3"></path><path d="M253.5 241.6 Q255.5 237.6 255.7 232.9"></path><path d="M256.1 245.0 Q250.7 243.2 249.3 243.5"></path><path d="M250.5 238.1 Q252.3 236.5 253.5 232.3"></path></g><path d="M140.5 195.0 L139.2 191.5 L138.0 187.7 L136.8 183.6 L135.8 179.4 L135.0 175.0 L134.3 170.5 L133.8 166.0 L133.4 161.5 L133.3 157.0 L133.4 152.5 L133.7 148.2 L134.3 144.1 L135.1 140.2 L136.3 136.4 L137.8 132.5 L139.6 128.6 L141.6 124.8 L143.9 121.0 L146.4 117.3 L149.0 113.7 L151.8 110.2 L154.6 107.0 L157.5 104.0 L160.3 101.2 L163.2 98.7 L165.9 96.6 L169.6 94.3 L173.4 92.4 L177.4 90.9 L181.4 89.8 L185.6 89.1 L189.7 88.6 L193.9 88.4 L198.1 88.4 L202.2 88.7 L206.2 89.0 L210.2 89.6 L214.2 90.4 L218.4 91.4 L222.5 92.6 L226.5 94.1 L230.5 95.9 L234.4 97.9 L238.1 100.1 L241.7 102.6 L245.0 105.3 L247.8 108.1 L250.7 111.1 L253.5 114.4 L256.2 117.9 L258.8 121.6 L261.2 125.4 L263.4 129.4 L265.4 133.5 L267.1 137.7 L268.4 141.9 L269.5 146.1 L270.1 149.8 L270.4 153.6 L270.6 157.6 L270.6 161.8 L270.4 166.0 L270.0 170.2 L269.4 174.5 L268.7 178.7 L267.9 182.8 L267.0 186.9 L265.9 190.7 L264.8 194.4 L263.6 197.9 L262.1 201.9 L260.6 205.9 L259.0 209.9 L257.2 213.7 L255.3 217.4 L253.1 220.9 L250.6 224.1 L247.9 227.0 L244.7 229.6 L241.2 231.7 L237.2 233.3 L234.1 234.2 L230.6 234.8 L226.8 235.3 L222.6 235.6 L218.3 235.7 L213.7 235.7 L209.1 235.5 L204.3 235.1 L199.6 234.7 L194.9 234.1 L190.4 233.4 L185.9 232.5 L181.7 231.6 L177.8 230.6 L174.2 229.5 L170.9 228.4 L166.7 226.5 L162.9 224.3 L159.4 221.9 L156.2 219.2 L153.3 216.3 L150.6 213.2 L148.2 209.9 L146.1 206.5 L144.1 202.8 L142.2 199.0Z" transform="translate(3 6)" fill="#000000" opacity="0.26" fill-rule="evenodd" filter="url(#kosh)"></path><g filter="url(#kofz)"><path d="M140.5 195.0 L139.2 191.5 L138.0 187.7 L136.8 183.6 L135.8 179.4 L135.0 175.0 L134.3 170.5 L133.8 166.0 L133.4 161.5 L133.3 157.0 L133.4 152.5 L133.7 148.2 L134.3 144.1 L135.1 140.2 L136.3 136.4 L137.8 132.5 L139.6 128.6 L141.6 124.8 L143.9 121.0 L146.4 117.3 L149.0 113.7 L151.8 110.2 L154.6 107.0 L157.5 104.0 L160.3 101.2 L163.2 98.7 L165.9 96.6 L169.6 94.3 L173.4 92.4 L177.4 90.9 L181.4 89.8 L185.6 89.1 L189.7 88.6 L193.9 88.4 L198.1 88.4 L202.2 88.7 L206.2 89.0 L210.2 89.6 L214.2 90.4 L218.4 91.4 L222.5 92.6 L226.5 94.1 L230.5 95.9 L234.4 97.9 L238.1 100.1 L241.7 102.6 L245.0 105.3 L247.8 108.1 L250.7 111.1 L253.5 114.4 L256.2 117.9 L258.8 121.6 L261.2 125.4 L263.4 129.4 L265.4 133.5 L267.1 137.7 L268.4 141.9 L269.5 146.1 L270.1 149.8 L270.4 153.6 L270.6 157.6 L270.6 161.8 L270.4 166.0 L270.0 170.2 L269.4 174.5 L268.7 178.7 L267.9 182.8 L267.0 186.9 L265.9 190.7 L264.8 194.4 L263.6 197.9 L262.1 201.9 L260.6 205.9 L259.0 209.9 L257.2 213.7 L255.3 217.4 L253.1 220.9 L250.6 224.1 L247.9 227.0 L244.7 229.6 L241.2 231.7 L237.2 233.3 L234.1 234.2 L230.6 234.8 L226.8 235.3 L222.6 235.6 L218.3 235.7 L213.7 235.7 L209.1 235.5 L204.3 235.1 L199.6 234.7 L194.9 234.1 L190.4 233.4 L185.9 232.5 L181.7 231.6 L177.8 230.6 L174.2 229.5 L170.9 228.4 L166.7 226.5 L162.9 224.3 L159.4 221.9 L156.2 219.2 L153.3 216.3 L150.6 213.2 L148.2 209.9 L146.1 206.5 L144.1 202.8 L142.2 199.0Z" fill="url(#kobg)" fill-rule="evenodd" filter="url(#kogr)"></path></g><g fill="none" stroke="#403F3D" stroke-width="1" stroke-linecap="round" opacity="0.8"><path d="M230.6 234.8 L227.9 240.6"></path><path d="M270.6 161.8 L273.3 159.3"></path><path d="M258.8 121.6 L263.5 114.9"></path><path d="M210.2 89.6 L212.7 86.1"></path><path d="M139.2 191.5 L136.6 193.0"></path><path d="M163.2 98.7 L163.3 91.0"></path><path d="M146.4 117.3 L144.6 108.6"></path><path d="M234.4 97.9 L236.9 90.7"></path><path d="M177.8 230.6 L173.7 232.7"></path><path d="M144.1 202.8 L141.0 203.3"></path><path d="M151.8 110.2 L146.2 106.8"></path><path d="M245.0 105.3 L248.4 103.4"></path><path d="M163.2 98.7 L162.6 92.6"></path><path d="M265.9 190.7 L268.9 190.1"></path><path d="M138.0 187.7 L130.3 190.3"></path><path d="M142.2 199.0 L140.1 201.9"></path><path d="M270.0 170.2 L273.1 170.7"></path><path d="M133.4 161.5 L126.6 159.4"></path><path d="M137.8 132.5 L131.2 131.8"></path><path d="M250.7 111.1 L257.3 110.4"></path><path d="M218.4 91.4 L216.1 84.8"></path><path d="M154.6 107.0 L147.6 101.8"></path><path d="M133.3 157.0 L127.4 160.4"></path><path d="M170.9 228.4 L172.2 237.2"></path><path d="M153.3 216.3 L150.4 218.5"></path><path d="M193.9 88.4 L198.2 81.7"></path><path d="M210.2 89.6 L213.5 85.8"></path><path d="M159.4 221.9 L156.6 230.1"></path><path d="M163.2 98.7 L158.9 94.9"></path><path d="M265.9 190.7 L267.6 195.5"></path><path d="M268.4 141.9 L273.1 144.7"></path><path d="M261.2 125.4 L264.7 125.9"></path><path d="M143.9 121.0 L140.0 116.2"></path><path d="M138.0 187.7 L135.6 190.9"></path><path d="M173.4 92.4 L168.1 85.2"></path><path d="M270.0 170.2 L274.8 176.6"></path><path d="M185.6 89.1 L182.7 84.3"></path><path d="M241.2 231.7 L244.4 235.6"></path><path d="M210.2 89.6 L210.1 86.5"></path><path d="M261.2 125.4 L269.1 126.0"></path></g><g filter="url(#kofz)"><ellipse cx="180" cy="176" rx="5.0" ry="3.6" fill="#141312" opacity="0.8"></ellipse></g><g filter="url(#kofz)"><ellipse cx="224" cy="176" rx="5.0" ry="3.6" fill="#141312" opacity="0.8"></ellipse></g><text x="298" y="110" font-family="Nunito, sans-serif" font-weight="900" font-size="30" fill="#E86A6A">7?</text></svg>
