<svg xmlns="http://www.w3.org/2000/svg" width="400" height="400" viewBox="0 0 400 400">
<defs><linearGradient id="kbng" x1="0" y1="0" x2="1" y2="1"><stop offset="0" stop-color="#5F5E5B"></stop><stop offset="0.5" stop-color="#3D3C3A"></stop><stop offset="1" stop-color="#222120"></stop></linearGradient><radialGradient id="kbnbg" cx="0.38" cy="0.34" r="0.75"><stop offset="0" stop-color="#6A6864"></stop><stop offset="0.55" stop-color="#403F3C"></stop><stop offset="1" stop-color="#1F1E1D"></stop></radialGradient><filter id="kbnfz" x="-10%" y="-10%" width="120%" height="120%"><feTurbulence type="fractalNoise" baseFrequency="0.9" numOctaves="2" seed="3" result="n"></feTurbulence><feDisplacementMap in="SourceGraphic" in2="n" scale="4" xChannelSelector="R" yChannelSelector="G"></feDisplacementMap></filter><filter id="kbngr" x="-10%" y="-10%" width="120%" height="120%"><feTurbulence type="fractalNoise" baseFrequency="1.6" numOctaves="2" seed="7" result="t"></feTurbulence><feColorMatrix in="t" type="matrix" values="0 0 0 0 0.62 0 0 0 0 0.61 0 0 0 0 0.59 0 0 0 0.55 -0.22" result="w"></feColorMatrix><feComposite in="w" in2="SourceGraphic" operator="in" result="wi"></feComposite><feMerge><feMergeNode in="SourceGraphic"></feMergeNode><feMergeNode in="wi"></feMergeNode></feMerge></filter><filter id="kbnsh" x="-20%" y="-20%" width="140%" height="140%"><feGaussianBlur stdDeviation="4"></feGaussianBlur></filter></defs><ellipse cx="200" cy="290" rx="130" ry="23.4" fill="#000000" opacity="0.22" filter="url(#kbnsh)"></ellipse><path d="M122.6 247.2 L124.7 247.1 L127.3 247.4 L130.3 247.6 L133.5 247.5 L137.0 247.1 L140.5 245.8 L144.1 243.2 L148.0 240.8 L152.2 240.2 L156.8 240.5 L161.4 240.3 L166.0 239.9 L170.6 238.9 L175.2 237.6 L179.8 236.7 L184.5 236.7 L189.3 237.2 L193.8 236.7 L198.0 235.3 L202.2 234.5 L206.3 233.4 L210.5 231.6 L215.0 230.3 L219.8 230.2 L224.8 230.9 L229.8 230.9 L234.3 228.7 L238.7 225.6 L243.3 224.2 L248.2 224.2 L252.8 223.5 L257.3 222.8 L261.8 223.1 L265.9 222.1 L269.3 219.4 L272.7 217.8 L276.2 217.9 L279.3 218.1 L281.9 217.7 L284.2 217.2 L276.5 180.3 L274.2 180.7 L271.6 181.5 L268.8 183.0 L265.6 184.4 L261.8 184.3 L257.6 183.3 L253.5 184.0 L249.5 186.1 L245.2 187.4 L240.7 188.6 L236.3 190.5 L231.5 191.1 L226.3 189.9 L221.3 189.7 L216.8 191.7 L212.5 194.3 L208.1 196.0 L203.7 196.5 L199.2 196.3 L195.1 196.8 L191.1 197.5 L186.8 197.7 L182.5 198.7 L178.3 200.8 L173.9 202.4 L169.3 203.1 L164.6 203.3 L160.0 203.8 L155.6 204.9 L151.2 206.2 L147.0 207.9 L142.8 208.7 L138.4 207.6 L134.2 206.3 L130.4 206.1 L127.0 206.9 L123.9 207.8 L121.1 208.9 L118.6 210.0 L116.5 210.7Z" transform="translate(3 6)" fill="#000000" opacity="0.26" fill-rule="evenodd" filter="url(#kbnsh)"></path><g filter="url(#kbnfz)"><path d="M122.6 247.2 L124.7 247.1 L127.3 247.4 L130.3 247.6 L133.5 247.5 L137.0 247.1 L140.5 245.8 L144.1 243.2 L148.0 240.8 L152.2 240.2 L156.8 240.5 L161.4 240.3 L166.0 239.9 L170.6 238.9 L175.2 237.6 L179.8 236.7 L184.5 236.7 L189.3 237.2 L193.8 236.7 L198.0 235.3 L202.2 234.5 L206.3 233.4 L210.5 231.6 L215.0 230.3 L219.8 230.2 L224.8 230.9 L229.8 230.9 L234.3 228.7 L238.7 225.6 L243.3 224.2 L248.2 224.2 L252.8 223.5 L257.3 222.8 L261.8 223.1 L265.9 222.1 L269.3 219.4 L272.7 217.8 L276.2 217.9 L279.3 218.1 L281.9 217.7 L284.2 217.2 L276.5 180.3 L274.2 180.7 L271.6 181.5 L268.8 183.0 L265.6 184.4 L261.8 184.3 L257.6 183.3 L253.5 184.0 L249.5 186.1 L245.2 187.4 L240.7 188.6 L236.3 190.5 L231.5 191.1 L226.3 189.9 L221.3 189.7 L216.8 191.7 L212.5 194.3 L208.1 196.0 L203.7 196.5 L199.2 196.3 L195.1 196.8 L191.1 197.5 L186.8 197.7 L182.5 198.7 L178.3 200.8 L173.9 202.4 L169.3 203.1 L164.6 203.3 L160.0 203.8 L155.6 204.9 L151.2 206.2 L147.0 207.9 L142.8 208.7 L138.4 207.6 L134.2 206.3 L130.4 206.1 L127.0 206.9 L123.9 207.8 L121.1 208.9 L118.6 210.0 L116.5 210.7Z" fill="url(#kbng)" fill-rule="evenodd" filter="url(#kbngr)"></path></g><path d="M124.2 223.1 L127.1 222.6 L130.2 222.1 L133.7 221.6 L137.4 221.0 L141.3 220.4 L145.4 219.7 L149.6 219.0 L154.0 218.3 L158.5 217.6 L163.0 216.8 L167.6 216.1 L172.2 215.3 L176.8 214.5 L181.4 213.7 L185.9 212.9 L190.3 212.1 L194.6 211.4 L198.7 210.6 L202.8 209.8 L207.1 209.0 L211.6 208.1 L216.1 207.2 L220.8 206.3 L225.5 205.3 L230.3 204.3 L235.1 203.3 L239.8 202.3 L244.4 201.3 L249.0 200.4 L253.4 199.4 L257.7 198.5 L261.7 197.7 L265.6 196.8 L269.2 196.1 L272.5 195.4 L275.4 194.7" fill="none" stroke="#9A9893" stroke-width="5.8" stroke-linecap="round" opacity="0.4" filter="url(#kbnfz)"></path><g fill="none" stroke="#3A3937" stroke-width="1.1" stroke-linecap="round" opacity="0.85"><path d="M176.8 219.5 Q175.1 215.1 172.4 210.9"></path><path d="M207.1 214.0 Q205.8 209.1 206.3 201.4"></path><path d="M225.5 210.3 Q223.5 210.0 217.7 211.9"></path><path d="M190.3 217.2 Q196.9 222.1 199.7 226.6"></path><path d="M145.4 224.7 Q142.9 224.3 138.9 221.0"></path></g><path d="M129.2 214.0 L128.1 219.6 L126.2 225.0 L123.6 229.4 L120.0 232.8 L115.1 234.9 L109.6 236.1 L104.1 237.1 L98.6 237.3 L93.3 236.0 L88.4 233.5 L85.3 231.0 L82.3 227.9 L80.0 224.7 L78.0 219.5 L77.4 214.0 L77.9 208.4 L79.6 203.0 L83.0 198.2 L87.4 194.3 L92.6 191.6 L98.3 190.0 L103.9 189.6 L109.5 190.5 L113.3 191.9 L117.0 193.9 L120.4 196.1 L125.2 199.8 L128.7 203.9 L129.6 208.8Z" transform="translate(3 6)" fill="#000000" opacity="0.26" fill-rule="evenodd" filter="url(#kbnsh)"></path><g filter="url(#kbnfz)"><path d="M129.2 214.0 L128.1 219.6 L126.2 225.0 L123.6 229.4 L120.0 232.8 L115.1 234.9 L109.6 236.1 L104.1 237.1 L98.6 237.3 L93.3 236.0 L88.4 233.5 L85.3 231.0 L82.3 227.9 L80.0 224.7 L78.0 219.5 L77.4 214.0 L77.9 208.4 L79.6 203.0 L83.0 198.2 L87.4 194.3 L92.6 191.6 L98.3 190.0 L103.9 189.6 L109.5 190.5 L113.3 191.9 L117.0 193.9 L120.4 196.1 L125.2 199.8 L128.7 203.9 L129.6 208.8Z" fill="url(#kbnbg)" fill-rule="evenodd" filter="url(#kbngr)"></path></g><g fill="none" stroke="#403F3D" stroke-width="1" stroke-linecap="round" opacity="0.8"><path d="M85.3 231.0 L78.6 233.5"></path><path d="M80.0 224.7 L76.5 224.5"></path><path d="M98.3 190.0 L95.9 186.5"></path><path d="M98.3 190.0 L95.1 185.8"></path><path d="M103.9 189.6 L101.5 181.4"></path><path d="M82.3 227.9 L77.5 228.5"></path><path d="M78.0 219.5 L73.8 218.8"></path><path d="M115.1 234.9 L118.7 237.4"></path><path d="M77.4 214.0 L74.2 213.1"></path><path d="M104.1 237.1 L103.6 243.8"></path><path d="M77.4 214.0 L73.2 215.2"></path><path d="M98.3 190.0 L99.2 182.1"></path><path d="M78.0 219.5 L70.8 219.9"></path><path d="M79.6 203.0 L76.1 198.9"></path><path d="M85.3 231.0 L77.4 231.8"></path><path d="M129.2 214.0 L135.5 210.4"></path></g><path d="M138.9 256.0 L138.8 261.6 L137.5 266.9 L134.3 271.9 L130.0 275.8 L125.4 277.4 L120.1 278.1 L116.2 279.0 L112.0 279.9 L108.1 279.9 L103.0 277.8 L98.3 274.5 L93.3 271.1 L89.4 267.0 L88.3 261.6 L88.7 256.0 L89.3 250.8 L90.9 245.9 L94.3 241.0 L98.5 236.8 L103.1 234.2 L108.1 232.8 L113.8 232.1 L119.7 232.6 L123.6 234.0 L127.5 235.9 L130.9 238.1 L134.7 241.6 L137.3 245.7 L138.6 250.6Z" transform="translate(3 6)" fill="#000000" opacity="0.26" fill-rule="evenodd" filter="url(#kbnsh)"></path><g filter="url(#kbnfz)"><path d="M138.9 256.0 L138.8 261.6 L137.5 266.9 L134.3 271.9 L130.0 275.8 L125.4 277.4 L120.1 278.1 L116.2 279.0 L112.0 279.9 L108.1 279.9 L103.0 277.8 L98.3 274.5 L93.3 271.1 L89.4 267.0 L88.3 261.6 L88.7 256.0 L89.3 250.8 L90.9 245.9 L94.3 241.0 L98.5 236.8 L103.1 234.2 L108.1 232.8 L113.8 232.1 L119.7 232.6 L123.6 234.0 L127.5 235.9 L130.9 238.1 L134.7 241.6 L137.3 245.7 L138.6 250.6Z" fill="url(#kbnbg)" fill-rule="evenodd" filter="url(#kbngr)"></path></g><g fill="none" stroke="#403F3D" stroke-width="1" stroke-linecap="round" opacity="0.8"><path d="M88.7 256.0 L83.6 258.8"></path><path d="M137.5 266.9 L143.3 267.1"></path><path d="M94.3 241.0 L93.0 237.9"></path><path d="M130.9 238.1 L138.8 238.0"></path><path d="M90.9 245.9 L83.8 248.5"></path><path d="M120.1 278.1 L122.5 283.6"></path><path d="M138.6 250.6 L142.3 248.9"></path><path d="M134.7 241.6 L135.5 237.7"></path><path d="M98.5 236.8 L96.2 233.7"></path><path d="M103.1 234.2 L101.4 229.3"></path><path d="M116.2 279.0 L114.3 283.2"></path><path d="M138.9 256.0 L145.0 256.6"></path><path d="M116.2 279.0 L117.3 283.0"></path><path d="M89.3 250.8 L83.2 251.3"></path><path d="M125.4 277.4 L128.5 283.0"></path><path d="M119.7 232.6 L117.2 228.0"></path></g><path d="M311.3 176.0 L311.2 181.7 L309.9 187.0 L307.0 190.7 L302.9 193.7 L299.5 195.7 L295.6 197.5 L291.7 198.8 L285.8 199.8 L280.0 199.5 L276.1 198.3 L272.3 196.5 L269.0 194.4 L265.4 190.9 L262.7 186.7 L260.7 181.5 L260.0 176.0 L261.3 170.7 L263.8 165.7 L266.7 161.3 L270.4 157.3 L275.1 153.7 L280.4 151.4 L285.9 152.2 L291.5 154.0 L296.9 154.7 L301.8 156.3 L304.6 159.0 L307.0 162.6 L308.9 166.2 L310.6 171.0Z" transform="translate(3 6)" fill="#000000" opacity="0.26" fill-rule="evenodd" filter="url(#kbnsh)"></path><g filter="url(#kbnfz)"><path d="M311.3 176.0 L311.2 181.7 L309.9 187.0 L307.0 190.7 L302.9 193.7 L299.5 195.7 L295.6 197.5 L291.7 198.8 L285.8 199.8 L280.0 199.5 L276.1 198.3 L272.3 196.5 L269.0 194.4 L265.4 190.9 L262.7 186.7 L260.7 181.5 L260.0 176.0 L261.3 170.7 L263.8 165.7 L266.7 161.3 L270.4 157.3 L275.1 153.7 L280.4 151.4 L285.9 152.2 L291.5 154.0 L296.9 154.7 L301.8 156.3 L304.6 159.0 L307.0 162.6 L308.9 166.2 L310.6 171.0Z" fill="url(#kbnbg)" fill-rule="evenodd" filter="url(#kbngr)"></path></g><g fill="none" stroke="#403F3D" stroke-width="1" stroke-linecap="round" opacity="0.8"><path d="M311.2 181.7 L316.9 188.4"></path><path d="M307.0 162.6 L310.7 162.5"></path><path d="M311.3 176.0 L318.2 181.4"></path><path d="M285.8 199.8 L285.4 208.4"></path><path d="M285.8 199.8 L286.8 203.7"></path><path d="M307.0 162.6 L314.7 162.8"></path><path d="M291.5 154.0 L296.0 150.1"></path><path d="M285.8 199.8 L284.0 206.3"></path><path d="M280.4 151.4 L276.4 145.5"></path><path d="M307.0 162.6 L314.8 163.7"></path><path d="M311.3 176.0 L316.9 178.4"></path><path d="M295.6 197.5 L295.0 202.4"></path><path d="M280.0 199.5 L281.2 207.6"></path><path d="M285.8 199.8 L286.9 203.0"></path><path d="M285.8 199.8 L282.3 203.2"></path><path d="M269.0 194.4 L262.9 195.7"></path></g><path d="M324.7 216.0 L324.3 221.3 L322.7 226.3 L319.3 231.0 L314.8 235.0 L309.6 237.6 L303.9 239.2 L298.1 240.3 L292.4 240.3 L287.2 238.3 L282.6 235.0 L279.0 231.0 L275.9 226.4 L273.1 221.3 L271.4 216.0 L272.2 210.6 L274.4 205.6 L277.3 201.6 L281.2 198.3 L286.3 195.6 L292.0 193.7 L297.9 192.3 L303.7 192.2 L309.2 193.8 L314.3 196.7 L318.9 200.5 L322.5 205.1 L324.2 210.4Z" transform="translate(3 6)" fill="#000000" opacity="0.26" fill-rule="evenodd" filter="url(#kbnsh)"></path><g filter="url(#kbnfz)"><path d="M324.7 216.0 L324.3 221.3 L322.7 226.3 L319.3 231.0 L314.8 235.0 L309.6 237.6 L303.9 239.2 L298.1 240.3 L292.4 240.3 L287.2 238.3 L282.6 235.0 L279.0 231.0 L275.9 226.4 L273.1 221.3 L271.4 216.0 L272.2 210.6 L274.4 205.6 L277.3 201.6 L281.2 198.3 L286.3 195.6 L292.0 193.7 L297.9 192.3 L303.7 192.2 L309.2 193.8 L314.3 196.7 L318.9 200.5 L322.5 205.1 L324.2 210.4Z" fill="url(#kbnbg)" fill-rule="evenodd" filter="url(#kbngr)"></path></g><g fill="none" stroke="#403F3D" stroke-width="1" stroke-linecap="round" opacity="0.8"><path d="M322.7 226.3 L328.2 233.1"></path><path d="M322.5 205.1 L325.6 205.2"></path><path d="M297.9 192.3 L298.4 186.7"></path><path d="M273.1 221.3 L265.3 224.5"></path><path d="M314.8 235.0 L318.2 240.8"></path><path d="M322.7 226.3 L326.4 233.2"></path><path d="M318.9 200.5 L325.1 200.2"></path><path d="M275.9 226.4 L272.6 229.0"></path><path d="M309.2 193.8 L317.2 190.7"></path><path d="M322.5 205.1 L328.1 202.8"></path><path d="M297.9 192.3 L299.1 188.3"></path><path d="M292.0 193.7 L289.2 189.9"></path><path d="M272.2 210.6 L268.5 208.2"></path><path d="M298.1 240.3 L302.2 247.1"></path><path d="M322.7 226.3 L330.8 224.0"></path><path d="M318.9 200.5 L321.6 197.0"></path></g></svg>
