<svg xmlns="http://www.w3.org/2000/svg" width="400" height="400" viewBox="0 0 400 400">
<defs><linearGradient id="kjg" x1="0" y1="0" x2="1" y2="1"><stop offset="0" stop-color="#5F5E5B"></stop><stop offset="0.5" stop-color="#3D3C3A"></stop><stop offset="1" stop-color="#222120"></stop></linearGradient><radialGradient id="kjbg" cx="0.38" cy="0.34" r="0.75"><stop offset="0" stop-color="#6A6864"></stop><stop offset="0.55" stop-color="#403F3C"></stop><stop offset="1" stop-color="#1F1E1D"></stop></radialGradient><filter id="kjfz" x="-10%" y="-10%" width="120%" height="120%"><feTurbulence type="fractalNoise" baseFrequency="0.9" numOctaves="2" seed="3" result="n"></feTurbulence><feDisplacementMap in="SourceGraphic" in2="n" scale="4" xChannelSelector="R" yChannelSelector="G"></feDisplacementMap></filter><filter id="kjgr" x="-10%" y="-10%" width="120%" height="120%"><feTurbulence type="fractalNoise" baseFrequency="1.6" numOctaves="2" seed="7" result="t"></feTurbulence><feColorMatrix in="t" type="matrix" values="0 0 0 0 0.62 0 0 0 0 0.61 0 0 0 0 0.59 0 0 0 0.55 -0.22" result="w"></feColorMatrix><feComposite in="w" in2="SourceGraphic" operator="in" result="wi"></feComposite><feMerge><feMergeNode in="SourceGraphic"></feMergeNode><feMergeNode in="wi"></feMergeNode></feMerge></filter><filter id="kjsh" x="-20%" y="-20%" width="140%" height="140%"><feGaussianBlur stdDeviation="4"></feGaussianBlur></filter></defs><defs><pattern id="kjpk" width="90" height="90" patternUnits="userSpaceOnUse"><rect width="90" height="90" fill="#4E4C49"></rect><g fill="none" stroke-linecap="round" stroke="#2A2927" opacity="0.55" transform="translate(0.6 1)"><path d="M12 76Q12 74 13 71" stroke-width="3.7"></path><path d="M34 19Q30 19 27 19" stroke-width="3.6"></path><path d="M63 24Q63 21 65 18" stroke-width="3.3"></path><path d="M2 49Q5 47 7 47" stroke-width="3.4"></path><path d="M92 49Q95 47 97 47" stroke-width="3.4"></path><path d="M47 69Q51 69 53 66" stroke-width="3.5"></path><path d="M-4 -7Q-6 -3 -11 -3" stroke-width="4.1"></path><path d="M-4 83Q-6 87 -11 87" stroke-width="4.1"></path><path d="M86 -7Q84 -3 79 -3" stroke-width="4.1"></path><path d="M86 83Q84 87 79 87" stroke-width="4.1"></path><path d="M-1 77Q0 80 3 81" stroke-width="3.9"></path><path d="M89 77Q90 80 93 81" stroke-width="3.9"></path><path d="M46 -8Q47 -6 48 -3" stroke-width="4.2"></path><path d="M46 82Q47 84 48 87" stroke-width="4.2"></path><path d="M35 77Q32 76 28 78" stroke-width="3.6"></path><path d="M49 63Q48 61 47 58" stroke-width="3.6"></path><path d="M47 35Q45 34 43 36" stroke-width="3.2"></path><path d="M53 35Q53 39 56 41" stroke-width="4.2"></path><path d="M83 49Q81 52 78 52" stroke-width="4.0"></path><path d="M59 55Q62 52 59 49" stroke-width="4.1"></path><path d="M73 47Q71 44 68 45" stroke-width="3.3"></path><path d="M50 -5Q48 -1 44 -2" stroke-width="3.6"></path><path d="M50 85Q48 89 44 88" stroke-width="3.6"></path><path d="M56 55Q55 58 52 56" stroke-width="3.4"></path><path d="M16 8Q12 10 9 6" stroke-width="4.1"></path><path d="M16 98Q12 100 9 96" stroke-width="4.1"></path><path d="M6 78Q3 80 -0 80" stroke-width="3.5"></path><path d="M96 78Q93 80 90 80" stroke-width="3.5"></path><path d="M17 26Q17 29 19 30" stroke-width="4.2"></path><path d="M64 41Q63 44 61 46" stroke-width="3.2"></path><path d="M72 23Q69 27 72 30" stroke-width="4.2"></path><path d="M74 2Q76 0 78 2" stroke-width="3.9"></path><path d="M74 92Q76 90 78 92" stroke-width="3.9"></path><path d="M61 49Q62 53 62 57" stroke-width="4.0"></path><path d="M47 3Q45 -0 44 -4" stroke-width="3.9"></path><path d="M47 93Q45 90 44 86" stroke-width="3.9"></path><path d="M11 19Q13 22 15 20" stroke-width="3.3"></path><path d="M67 37Q70 40 67 41" stroke-width="4.1"></path><path d="M-3 51Q-3 55 0 58" stroke-width="4.2"></path><path d="M87 51Q87 55 90 58" stroke-width="4.2"></path><path d="M3 18Q6 20 8 22" stroke-width="4.1"></path><path d="M93 18Q96 20 98 22" stroke-width="4.1"></path><path d="M9 60Q6 62 8 66" stroke-width="3.5"></path><path d="M2 18Q1 22 -2 25" stroke-width="4.0"></path><path d="M92 18Q91 22 88 25" stroke-width="4.0"></path><path d="M24 9Q20 9 20 13" stroke-width="4.1"></path><path d="M44 -1Q46 2 44 6" stroke-width="3.3"></path><path d="M44 89Q46 92 44 96" stroke-width="3.3"></path><path d="M19 68Q16 67 13 64" stroke-width="3.6"></path><path d="M21 -5Q22 -8 22 -12" stroke-width="3.7"></path><path d="M21 85Q22 82 22 78" stroke-width="3.7"></path><path d="M29 37Q28 41 23 42" stroke-width="3.3"></path><path d="M55 70Q55 74 51 75" stroke-width="3.4"></path><path d="M33 27Q30 28 28 26" stroke-width="4.1"></path><path d="M74 1Q75 -2 72 -3" stroke-width="3.3"></path><path d="M74 91Q75 88 72 87" stroke-width="3.3"></path><path d="M17 71Q15 69 13 68" stroke-width="3.7"></path><path d="M67 9Q71 10 72 6" stroke-width="4.2"></path><path d="M50 64Q51 67 48 68" stroke-width="3.5"></path><path d="M65 29Q64 31 61 32" stroke-width="3.3"></path><path d="M-3 10Q-2 13 -1 16" stroke-width="4.2"></path><path d="M87 10Q88 13 89 16" stroke-width="4.2"></path><path d="M60 23Q56 25 55 22" stroke-width="3.4"></path><path d="M8 68Q12 68 13 71" stroke-width="3.5"></path><path d="M4 17Q3 13 5 11" stroke-width="4.1"></path><path d="M94 17Q93 13 95 11" stroke-width="4.1"></path><path d="M49 52Q46 52 45 49" stroke-width="3.2"></path><path d="M24 78Q25 76 24 74" stroke-width="3.2"></path><path d="M44 78Q48 79 48 83" stroke-width="4.0"></path><path d="M16 70Q19 67 23 69" stroke-width="3.5"></path><path d="M75 54Q76 57 79 58" stroke-width="3.7"></path><path d="M74 56Q75 52 71 51" stroke-width="4.1"></path><path d="M16 39Q19 41 20 45" stroke-width="3.9"></path><path d="M61 40Q59 41 57 42" stroke-width="3.6"></path><path d="M36 30Q36 33 35 35" stroke-width="3.8"></path><path d="M2 62Q0 58 -4 59" stroke-width="3.3"></path><path d="M92 62Q90 58 86 59" stroke-width="3.3"></path><path d="M36 36Q34 34 32 33" stroke-width="3.2"></path><path d="M-10 83Q-7 80 -4 80" stroke-width="3.4"></path><path d="M80 83Q83 80 86 80" stroke-width="3.4"></path><path d="M43 20Q39 20 38 24" stroke-width="4.1"></path><path d="M-2 20Q0 17 4 16" stroke-width="3.8"></path><path d="M88 20Q90 17 94 16" stroke-width="3.8"></path><path d="M69 -11Q68 -7 66 -4" stroke-width="4.0"></path><path d="M69 79Q68 83 66 86" stroke-width="4.0"></path><path d="M54 77Q55 73 60 72" stroke-width="3.8"></path><path d="M38 -5Q37 -9 37 -12" stroke-width="3.7"></path><path d="M38 85Q37 81 37 78" stroke-width="3.7"></path><path d="M31 46Q31 51 35 52" stroke-width="3.2"></path><path d="M57 24Q61 23 63 20" stroke-width="3.3"></path><path d="M62 7Q65 7 65 3" stroke-width="4.1"></path><path d="M62 97Q65 97 65 93" stroke-width="4.1"></path><path d="M36 -8Q33 -5 30 -6" stroke-width="3.7"></path><path d="M36 82Q33 85 30 84" stroke-width="3.7"></path><path d="M54 37Q55 40 58 40" stroke-width="3.4"></path><path d="M-4 48Q-6 48 -7 46" stroke-width="4.2"></path><path d="M86 48Q84 48 83 46" stroke-width="4.2"></path><path d="M19 26Q16 26 14 24" stroke-width="3.8"></path><path d="M40 78Q41 75 43 74" stroke-width="3.6"></path></g><g fill="none" stroke-linecap="round"><path d="M12 76Q12 74 13 71" stroke="#5A5855" stroke-width="2.7"></path><path d="M34 19Q30 19 27 19" stroke="#504E4B" stroke-width="2.6"></path><path d="M63 24Q63 21 65 18" stroke="#504E4B" stroke-width="2.3"></path><path d="M2 49Q5 47 7 47" stroke="#504E4B" stroke-width="2.4"></path><path d="M92 49Q95 47 97 47" stroke="#504E4B" stroke-width="2.4"></path><path d="M47 69Q51 69 53 66" stroke="#575552" stroke-width="2.5"></path><path d="M-4 -7Q-6 -3 -11 -3" stroke="#5A5855" stroke-width="3.1"></path><path d="M-4 83Q-6 87 -11 87" stroke="#5A5855" stroke-width="3.1"></path><path d="M86 -7Q84 -3 79 -3" stroke="#5A5855" stroke-width="3.1"></path><path d="M86 83Q84 87 79 87" stroke="#5A5855" stroke-width="3.1"></path><path d="M-1 77Q0 80 3 81" stroke="#565451" stroke-width="2.9"></path><path d="M89 77Q90 80 93 81" stroke="#565451" stroke-width="2.9"></path><path d="M46 -8Q47 -6 48 -3" stroke="#585653" stroke-width="3.2"></path><path d="M46 82Q47 84 48 87" stroke="#585653" stroke-width="3.2"></path><path d="M35 77Q32 76 28 78" stroke="#555350" stroke-width="2.6"></path><path d="M49 63Q48 61 47 58" stroke="#52504D" stroke-width="2.6"></path><path d="M47 35Q45 34 43 36" stroke="#595754" stroke-width="2.2"></path><path d="M53 35Q53 39 56 41" stroke="#585653" stroke-width="3.2"></path><path d="M83 49Q81 52 78 52" stroke="#54524F" stroke-width="3.0"></path><path d="M59 55Q62 52 59 49" stroke="#585653" stroke-width="3.1"></path><path d="M73 47Q71 44 68 45" stroke="#595754" stroke-width="2.3"></path><path d="M50 -5Q48 -1 44 -2" stroke="#585653" stroke-width="2.6"></path><path d="M50 85Q48 89 44 88" stroke="#585653" stroke-width="2.6"></path><path d="M56 55Q55 58 52 56" stroke="#595754" stroke-width="2.4"></path><path d="M16 8Q12 10 9 6" stroke="#5A5855" stroke-width="3.1"></path><path d="M16 98Q12 100 9 96" stroke="#5A5855" stroke-width="3.1"></path><path d="M6 78Q3 80 -0 80" stroke="#595754" stroke-width="2.5"></path><path d="M96 78Q93 80 90 80" stroke="#595754" stroke-width="2.5"></path><path d="M17 26Q17 29 19 30" stroke="#5A5855" stroke-width="3.2"></path><path d="M64 41Q63 44 61 46" stroke="#565451" stroke-width="2.2"></path><path d="M72 23Q69 27 72 30" stroke="#565451" stroke-width="3.2"></path><path d="M74 2Q76 0 78 2" stroke="#585653" stroke-width="2.9"></path><path d="M74 92Q76 90 78 92" stroke="#585653" stroke-width="2.9"></path><path d="M61 49Q62 53 62 57" stroke="#53514E" stroke-width="3.0"></path><path d="M47 3Q45 -0 44 -4" stroke="#54524F" stroke-width="2.9"></path><path d="M47 93Q45 90 44 86" stroke="#54524F" stroke-width="2.9"></path><path d="M11 19Q13 22 15 20" stroke="#54524F" stroke-width="2.3"></path><path d="M67 37Q70 40 67 41" stroke="#53514E" stroke-width="3.1"></path><path d="M-3 51Q-3 55 0 58" stroke="#585653" stroke-width="3.2"></path><path d="M87 51Q87 55 90 58" stroke="#585653" stroke-width="3.2"></path><path d="M3 18Q6 20 8 22" stroke="#575552" stroke-width="3.1"></path><path d="M93 18Q96 20 98 22" stroke="#575552" stroke-width="3.1"></path><path d="M9 60Q6 62 8 66" stroke="#54524F" stroke-width="2.5"></path><path d="M2 18Q1 22 -2 25" stroke="#53514E" stroke-width="3.0"></path><path d="M92 18Q91 22 88 25" stroke="#53514E" stroke-width="3.0"></path><path d="M24 9Q20 9 20 13" stroke="#585653" stroke-width="3.1"></path><path d="M44 -1Q46 2 44 6" stroke="#585653" stroke-width="2.3"></path><path d="M44 89Q46 92 44 96" stroke="#585653" stroke-width="2.3"></path><path d="M19 68Q16 67 13 64" stroke="#54524F" stroke-width="2.6"></path><path d="M21 -5Q22 -8 22 -12" stroke="#514F4C" stroke-width="2.7"></path><path d="M21 85Q22 82 22 78" stroke="#514F4C" stroke-width="2.7"></path><path d="M29 37Q28 41 23 42" stroke="#514F4C" stroke-width="2.3"></path><path d="M55 70Q55 74 51 75" stroke="#54524F" stroke-width="2.4"></path><path d="M33 27Q30 28 28 26" stroke="#504E4B" stroke-width="3.1"></path><path d="M74 1Q75 -2 72 -3" stroke="#504E4B" stroke-width="2.3"></path><path d="M74 91Q75 88 72 87" stroke="#504E4B" stroke-width="2.3"></path><path d="M17 71Q15 69 13 68" stroke="#52504D" stroke-width="2.7"></path><path d="M67 9Q71 10 72 6" stroke="#54524F" stroke-width="3.2"></path><path d="M50 64Q51 67 48 68" stroke="#54524F" stroke-width="2.5"></path><path d="M65 29Q64 31 61 32" stroke="#595754" stroke-width="2.3"></path><path d="M-3 10Q-2 13 -1 16" stroke="#575552" stroke-width="3.2"></path><path d="M87 10Q88 13 89 16" stroke="#575552" stroke-width="3.2"></path><path d="M60 23Q56 25 55 22" stroke="#54524F" stroke-width="2.4"></path><path d="M8 68Q12 68 13 71" stroke="#54524F" stroke-width="2.5"></path><path d="M4 17Q3 13 5 11" stroke="#514F4C" stroke-width="3.1"></path><path d="M94 17Q93 13 95 11" stroke="#514F4C" stroke-width="3.1"></path><path d="M49 52Q46 52 45 49" stroke="#514F4C" stroke-width="2.2"></path><path d="M24 78Q25 76 24 74" stroke="#555350" stroke-width="2.2"></path><path d="M44 78Q48 79 48 83" stroke="#5A5855" stroke-width="3.0"></path><path d="M16 70Q19 67 23 69" stroke="#585653" stroke-width="2.5"></path><path d="M75 54Q76 57 79 58" stroke="#555350" stroke-width="2.7"></path><path d="M74 56Q75 52 71 51" stroke="#53514E" stroke-width="3.1"></path><path d="M16 39Q19 41 20 45" stroke="#514F4C" stroke-width="2.9"></path><path d="M61 40Q59 41 57 42" stroke="#504E4B" stroke-width="2.6"></path><path d="M36 30Q36 33 35 35" stroke="#595754" stroke-width="2.8"></path><path d="M2 62Q0 58 -4 59" stroke="#54524F" stroke-width="2.3"></path><path d="M92 62Q90 58 86 59" stroke="#54524F" stroke-width="2.3"></path><path d="M36 36Q34 34 32 33" stroke="#585653" stroke-width="2.2"></path><path d="M-10 83Q-7 80 -4 80" stroke="#5A5855" stroke-width="2.4"></path><path d="M80 83Q83 80 86 80" stroke="#5A5855" stroke-width="2.4"></path><path d="M43 20Q39 20 38 24" stroke="#54524F" stroke-width="3.1"></path><path d="M-2 20Q0 17 4 16" stroke="#585653" stroke-width="2.8"></path><path d="M88 20Q90 17 94 16" stroke="#585653" stroke-width="2.8"></path><path d="M69 -11Q68 -7 66 -4" stroke="#575552" stroke-width="3.0"></path><path d="M69 79Q68 83 66 86" stroke="#575552" stroke-width="3.0"></path><path d="M54 77Q55 73 60 72" stroke="#54524F" stroke-width="2.8"></path><path d="M38 -5Q37 -9 37 -12" stroke="#5A5855" stroke-width="2.7"></path><path d="M38 85Q37 81 37 78" stroke="#5A5855" stroke-width="2.7"></path><path d="M31 46Q31 51 35 52" stroke="#54524F" stroke-width="2.2"></path><path d="M57 24Q61 23 63 20" stroke="#5A5855" stroke-width="2.3"></path><path d="M62 7Q65 7 65 3" stroke="#565451" stroke-width="3.1"></path><path d="M62 97Q65 97 65 93" stroke="#565451" stroke-width="3.1"></path><path d="M36 -8Q33 -5 30 -6" stroke="#565451" stroke-width="2.7"></path><path d="M36 82Q33 85 30 84" stroke="#565451" stroke-width="2.7"></path><path d="M54 37Q55 40 58 40" stroke="#504E4B" stroke-width="2.4"></path><path d="M-4 48Q-6 48 -7 46" stroke="#54524F" stroke-width="3.2"></path><path d="M86 48Q84 48 83 46" stroke="#54524F" stroke-width="3.2"></path><path d="M19 26Q16 26 14 24" stroke="#5A5855" stroke-width="2.8"></path><path d="M40 78Q41 75 43 74" stroke="#514F4C" stroke-width="2.6"></path></g><g fill="none" stroke-linecap="round" stroke="#B5B2AB" stroke-width="0.8" opacity="0.3" transform="translate(-0.5 -0.8)"><path d="M12 76Q12 74 13 71"></path><path d="M34 19Q30 19 27 19"></path><path d="M63 24Q63 21 65 18"></path><path d="M2 49Q5 47 7 47"></path><path d="M92 49Q95 47 97 47"></path><path d="M47 69Q51 69 53 66"></path><path d="M-4 -7Q-6 -3 -11 -3"></path><path d="M-4 83Q-6 87 -11 87"></path><path d="M86 -7Q84 -3 79 -3"></path><path d="M86 83Q84 87 79 87"></path><path d="M-1 77Q0 80 3 81"></path><path d="M89 77Q90 80 93 81"></path><path d="M46 -8Q47 -6 48 -3"></path><path d="M46 82Q47 84 48 87"></path><path d="M35 77Q32 76 28 78"></path><path d="M49 63Q48 61 47 58"></path><path d="M47 35Q45 34 43 36"></path><path d="M53 35Q53 39 56 41"></path><path d="M83 49Q81 52 78 52"></path><path d="M59 55Q62 52 59 49"></path><path d="M73 47Q71 44 68 45"></path><path d="M50 -5Q48 -1 44 -2"></path><path d="M50 85Q48 89 44 88"></path><path d="M56 55Q55 58 52 56"></path><path d="M16 8Q12 10 9 6"></path><path d="M16 98Q12 100 9 96"></path><path d="M6 78Q3 80 -0 80"></path><path d="M96 78Q93 80 90 80"></path><path d="M17 26Q17 29 19 30"></path><path d="M64 41Q63 44 61 46"></path><path d="M72 23Q69 27 72 30"></path><path d="M74 2Q76 0 78 2"></path><path d="M74 92Q76 90 78 92"></path><path d="M61 49Q62 53 62 57"></path><path d="M47 3Q45 -0 44 -4"></path><path d="M47 93Q45 90 44 86"></path><path d="M11 19Q13 22 15 20"></path><path d="M67 37Q70 40 67 41"></path><path d="M-3 51Q-3 55 0 58"></path><path d="M87 51Q87 55 90 58"></path><path d="M3 18Q6 20 8 22"></path><path d="M93 18Q96 20 98 22"></path><path d="M9 60Q6 62 8 66"></path><path d="M2 18Q1 22 -2 25"></path><path d="M92 18Q91 22 88 25"></path><path d="M24 9Q20 9 20 13"></path><path d="M44 -1Q46 2 44 6"></path><path d="M44 89Q46 92 44 96"></path><path d="M19 68Q16 67 13 64"></path><path d="M21 -5Q22 -8 22 -12"></path><path d="M21 85Q22 82 22 78"></path><path d="M29 37Q28 41 23 42"></path><path d="M55 70Q55 74 51 75"></path><path d="M33 27Q30 28 28 26"></path><path d="M74 1Q75 -2 72 -3"></path><path d="M74 91Q75 88 72 87"></path><path d="M17 71Q15 69 13 68"></path><path d="M67 9Q71 10 72 6"></path><path d="M50 64Q51 67 48 68"></path><path d="M65 29Q64 31 61 32"></path><path d="M-3 10Q-2 13 -1 16"></path><path d="M87 10Q88 13 89 16"></path><path d="M60 23Q56 25 55 22"></path><path d="M8 68Q12 68 13 71"></path><path d="M4 17Q3 13 5 11"></path><path d="M94 17Q93 13 95 11"></path><path d="M49 52Q46 52 45 49"></path><path d="M24 78Q25 76 24 74"></path><path d="M44 78Q48 79 48 83"></path><path d="M16 70Q19 67 23 69"></path><path d="M75 54Q76 57 79 58"></path><path d="M74 56Q75 52 71 51"></path><path d="M16 39Q19 41 20 45"></path><path d="M61 40Q59 41 57 42"></path><path d="M36 30Q36 33 35 35"></path><path d="M2 62Q0 58 -4 59"></path><path d="M92 62Q90 58 86 59"></path><path d="M36 36Q34 34 32 33"></path><path d="M-10 83Q-7 80 -4 80"></path><path d="M80 83Q83 80 86 80"></path><path d="M43 20Q39 20 38 24"></path><path d="M-2 20Q0 17 4 16"></path><path d="M88 20Q90 17 94 16"></path><path d="M69 -11Q68 -7 66 -4"></path><path d="M69 79Q68 83 66 86"></path><path d="M54 77Q55 73 60 72"></path><path d="M38 -5Q37 -9 37 -12"></path><path d="M38 85Q37 81 37 78"></path><path d="M31 46Q31 51 35 52"></path><path d="M57 24Q61 23 63 20"></path><path d="M62 7Q65 7 65 3"></path><path d="M62 97Q65 97 65 93"></path><path d="M36 -8Q33 -5 30 -6"></path><path d="M36 82Q33 85 30 84"></path><path d="M54 37Q55 40 58 40"></path><path d="M-4 48Q-6 48 -7 46"></path><path d="M86 48Q84 48 83 46"></path><path d="M19 26Q16 26 14 24"></path><path d="M40 78Q41 75 43 74"></path></g></pattern><radialGradient id="kjshade" cx="0.35" cy="0.3" r="0.85"><stop offset="0" stop-color="#FFFFFF" stop-opacity="0.26"></stop><stop offset="0.4" stop-color="#FFFFFF" stop-opacity="0"></stop><stop offset="1" stop-color="#000000" stop-opacity="0.6"></stop></radialGradient><linearGradient id="kjshadeT" x1="0" y1="0" x2="0" y2="1"><stop offset="0" stop-color="#FFFFFF" stop-opacity="0.16"></stop><stop offset="0.5" stop-color="#000000" stop-opacity="0"></stop><stop offset="1" stop-color="#000000" stop-opacity="0.5"></stop></linearGradient><filter id="kjedge" x="-5%" y="-5%" width="110%" height="110%"><feTurbulence type="fractalNoise" baseFrequency="0.12" numOctaves="2" seed="5" result="n"></feTurbulence><feDisplacementMap in="SourceGraphic" in2="n" scale="2" xChannelSelector="R" yChannelSelector="G"></feDisplacementMap></filter></defs><ellipse cx="200" cy="320" rx="140" ry="25.2" fill="#000000" opacity="0.22" filter="url(#kjsh)"></ellipse><path d="M132.0 261.3 L128.9 259.7 L124.9 259.3 L120.3 259.7 L115.5 260.4 L110.9 261.1 L107.0 261.6 L104.8 261.6 L100.8 261.0 L97.5 260.2 L93.9 260.0 L92.9 261.1 L93.6 264.8 L96.9 269.2 L103.3 271.5 L107.8 271.2 L112.3 270.7 L117.2 269.9 L122.1 268.7 L126.5 267.3 L130.0 265.3 L132.3 262.7Z" transform="translate(3 6)" fill="#000000" opacity="0.26" fill-rule="evenodd" filter="url(#kjsh)"></path><g filter="url(#kjedge)"><path d="M132.0 261.3 L128.9 259.7 L124.9 259.3 L120.3 259.7 L115.5 260.4 L110.9 261.1 L107.0 261.6 L104.8 261.6 L100.8 261.0 L97.5 260.2 L93.9 260.0 L92.9 261.1 L93.6 264.8 L96.9 269.2 L103.3 271.5 L107.8 271.2 L112.3 270.7 L117.2 269.9 L122.1 268.7 L126.5 267.3 L130.0 265.3 L132.3 262.7Z" fill="url(#kjpk)" fill-rule="evenodd"></path><path d="M132.0 261.3 L128.9 259.7 L124.9 259.3 L120.3 259.7 L115.5 260.4 L110.9 261.1 L107.0 261.6 L104.8 261.6 L100.8 261.0 L97.5 260.2 L93.9 260.0 L92.9 261.1 L93.6 264.8 L96.9 269.2 L103.3 271.5 L107.8 271.2 L112.3 270.7 L117.2 269.9 L122.1 268.7 L126.5 267.3 L130.0 265.3 L132.3 262.7Z" fill="url(#kjshadeT)" fill-rule="evenodd"></path></g><path d="M130.8 250.8 L126.7 248.9 L121.2 249.4 L115.8 250.0 L111.9 250.0 L108.0 248.3 L103.8 246.4 L99.2 247.0 L98.2 248.5 L99.5 253.1 L104.1 256.6 L110.5 258.4 L116.5 258.2 L122.5 257.2 L127.9 255.6 L131.1 252.4Z" transform="translate(3 6)" fill="#000000" opacity="0.26" fill-rule="evenodd" filter="url(#kjsh)"></path><g filter="url(#kjedge)"><path d="M130.8 250.8 L126.7 248.9 L121.2 249.4 L115.8 250.0 L111.9 250.0 L108.0 248.3 L103.8 246.4 L99.2 247.0 L98.2 248.5 L99.5 253.1 L104.1 256.6 L110.5 258.4 L116.5 258.2 L122.5 257.2 L127.9 255.6 L131.1 252.4Z" fill="url(#kjpk)" fill-rule="evenodd"></path><path d="M130.8 250.8 L126.7 248.9 L121.2 249.4 L115.8 250.0 L111.9 250.0 L108.0 248.3 L103.8 246.4 L99.2 247.0 L98.2 248.5 L99.5 253.1 L104.1 256.6 L110.5 258.4 L116.5 258.2 L122.5 257.2 L127.9 255.6 L131.1 252.4Z" fill="url(#kjshadeT)" fill-rule="evenodd"></path></g><path d="M129.7 245.4 L126.7 242.1 L121.9 240.8 L116.7 240.0 L112.9 239.1 L109.0 236.9 L105.2 234.5 L100.9 234.6 L99.9 235.9 L100.7 240.1 L104.5 243.7 L109.8 246.5 L114.9 248.1 L120.5 249.2 L125.6 249.3 L129.5 247.1Z" transform="translate(3 6)" fill="#000000" opacity="0.26" fill-rule="evenodd" filter="url(#kjsh)"></path><g filter="url(#kjedge)"><path d="M129.7 245.4 L126.7 242.1 L121.9 240.8 L116.7 240.0 L112.9 239.1 L109.0 236.9 L105.2 234.5 L100.9 234.6 L99.9 235.9 L100.7 240.1 L104.5 243.7 L109.8 246.5 L114.9 248.1 L120.5 249.2 L125.6 249.3 L129.5 247.1Z" fill="url(#kjpk)" fill-rule="evenodd"></path><path d="M129.7 245.4 L126.7 242.1 L121.9 240.8 L116.7 240.0 L112.9 239.1 L109.0 236.9 L105.2 234.5 L100.9 234.6 L99.9 235.9 L100.7 240.1 L104.5 243.7 L109.8 246.5 L114.9 248.1 L120.5 249.2 L125.6 249.3 L129.5 247.1Z" fill="url(#kjshadeT)" fill-rule="evenodd"></path></g><path d="M130.3 238.7 L126.6 236.2 L121.6 235.7 L116.5 235.9 L113.3 235.6 L110.2 233.2 L106.8 230.0 L102.7 228.6 L101.5 229.5 L101.7 234.0 L104.8 238.9 L110.3 242.5 L115.9 243.7 L121.7 244.1 L126.9 243.1 L130.3 240.3Z" transform="translate(3 6)" fill="#000000" opacity="0.26" fill-rule="evenodd" filter="url(#kjsh)"></path><g filter="url(#kjedge)"><path d="M130.3 238.7 L126.6 236.2 L121.6 235.7 L116.5 235.9 L113.3 235.6 L110.2 233.2 L106.8 230.0 L102.7 228.6 L101.5 229.5 L101.7 234.0 L104.8 238.9 L110.3 242.5 L115.9 243.7 L121.7 244.1 L126.9 243.1 L130.3 240.3Z" fill="url(#kjpk)" fill-rule="evenodd"></path><path d="M130.3 238.7 L126.6 236.2 L121.6 235.7 L116.5 235.9 L113.3 235.6 L110.2 233.2 L106.8 230.0 L102.7 228.6 L101.5 229.5 L101.7 234.0 L104.8 238.9 L110.3 242.5 L115.9 243.7 L121.7 244.1 L126.9 243.1 L130.3 240.3Z" fill="url(#kjshadeT)" fill-rule="evenodd"></path></g><path d="M134.3 232.8 L131.8 230.1 L127.8 228.4 L123.3 227.7 L118.8 227.0 L115.3 225.8 L112.3 223.7 L109.0 220.7 L105.8 217.6 L102.1 215.5 L98.6 214.9 L97.5 216.0 L98.0 219.5 L100.0 223.3 L103.4 226.8 L107.5 230.0 L111.8 232.7 L116.6 234.5 L121.6 236.0 L126.6 236.8 L130.9 236.3 L134.1 234.4Z" transform="translate(3 6)" fill="#000000" opacity="0.26" fill-rule="evenodd" filter="url(#kjsh)"></path><g filter="url(#kjedge)"><path d="M134.3 232.8 L131.8 230.1 L127.8 228.4 L123.3 227.7 L118.8 227.0 L115.3 225.8 L112.3 223.7 L109.0 220.7 L105.8 217.6 L102.1 215.5 L98.6 214.9 L97.5 216.0 L98.0 219.5 L100.0 223.3 L103.4 226.8 L107.5 230.0 L111.8 232.7 L116.6 234.5 L121.6 236.0 L126.6 236.8 L130.9 236.3 L134.1 234.4Z" fill="url(#kjpk)" fill-rule="evenodd"></path><path d="M134.3 232.8 L131.8 230.1 L127.8 228.4 L123.3 227.7 L118.8 227.0 L115.3 225.8 L112.3 223.7 L109.0 220.7 L105.8 217.6 L102.1 215.5 L98.6 214.9 L97.5 216.0 L98.0 219.5 L100.0 223.3 L103.4 226.8 L107.5 230.0 L111.8 232.7 L116.6 234.5 L121.6 236.0 L126.6 236.8 L130.9 236.3 L134.1 234.4Z" fill="url(#kjshadeT)" fill-rule="evenodd"></path></g><path d="M135.3 231.7 L132.8 229.0 L128.9 226.8 L124.1 225.2 L119.4 223.5 L115.3 222.0 L112.9 221.6 L109.8 219.1 L107.7 216.0 L104.8 213.6 L103.3 214.0 L102.3 217.8 L103.2 223.3 L107.5 228.6 L111.8 231.2 L116.6 232.7 L121.9 233.7 L127.0 234.6 L131.5 234.4 L134.9 233.2Z" transform="translate(3 6)" fill="#000000" opacity="0.26" fill-rule="evenodd" filter="url(#kjsh)"></path><g filter="url(#kjedge)"><path d="M135.3 231.7 L132.8 229.0 L128.9 226.8 L124.1 225.2 L119.4 223.5 L115.3 222.0 L112.9 221.6 L109.8 219.1 L107.7 216.0 L104.8 213.6 L103.3 214.0 L102.3 217.8 L103.2 223.3 L107.5 228.6 L111.8 231.2 L116.6 232.7 L121.9 233.7 L127.0 234.6 L131.5 234.4 L134.9 233.2Z" fill="url(#kjpk)" fill-rule="evenodd"></path><path d="M135.3 231.7 L132.8 229.0 L128.9 226.8 L124.1 225.2 L119.4 223.5 L115.3 222.0 L112.9 221.6 L109.8 219.1 L107.7 216.0 L104.8 213.6 L103.3 214.0 L102.3 217.8 L103.2 223.3 L107.5 228.6 L111.8 231.2 L116.6 232.7 L121.9 233.7 L127.0 234.6 L131.5 234.4 L134.9 233.2Z" fill="url(#kjshadeT)" fill-rule="evenodd"></path></g><path d="M138.7 222.1 L136.8 218.8 L133.3 216.0 L128.8 213.6 L124.0 211.5 L119.6 209.6 L116.5 207.8 L113.0 204.0 L110.3 199.5 L107.3 195.7 L103.4 193.8 L101.9 194.6 L101.5 198.8 L103.2 203.8 L106.8 208.9 L111.5 213.5 L115.5 216.6 L120.0 219.5 L124.9 222.1 L129.8 223.8 L134.3 224.4 L138.0 223.6Z" transform="translate(3 6)" fill="#000000" opacity="0.26" fill-rule="evenodd" filter="url(#kjsh)"></path><g filter="url(#kjedge)"><path d="M138.7 222.1 L136.8 218.8 L133.3 216.0 L128.8 213.6 L124.0 211.5 L119.6 209.6 L116.5 207.8 L113.0 204.0 L110.3 199.5 L107.3 195.7 L103.4 193.8 L101.9 194.6 L101.5 198.8 L103.2 203.8 L106.8 208.9 L111.5 213.5 L115.5 216.6 L120.0 219.5 L124.9 222.1 L129.8 223.8 L134.3 224.4 L138.0 223.6Z" fill="url(#kjpk)" fill-rule="evenodd"></path><path d="M138.7 222.1 L136.8 218.8 L133.3 216.0 L128.8 213.6 L124.0 211.5 L119.6 209.6 L116.5 207.8 L113.0 204.0 L110.3 199.5 L107.3 195.7 L103.4 193.8 L101.9 194.6 L101.5 198.8 L103.2 203.8 L106.8 208.9 L111.5 213.5 L115.5 216.6 L120.0 219.5 L124.9 222.1 L129.8 223.8 L134.3 224.4 L138.0 223.6Z" fill="url(#kjshadeT)" fill-rule="evenodd"></path></g><path d="M143.7 214.0 L143.2 209.8 L140.6 205.8 L136.8 202.3 L133.3 199.5 L129.2 195.3 L125.2 191.4 L120.9 189.8 L119.7 190.8 L120.4 195.3 L123.6 200.1 L127.4 204.9 L130.4 208.8 L134.1 212.5 L138.3 214.9 L142.6 215.2Z" transform="translate(3 6)" fill="#000000" opacity="0.26" fill-rule="evenodd" filter="url(#kjsh)"></path><g filter="url(#kjedge)"><path d="M143.7 214.0 L143.2 209.8 L140.6 205.8 L136.8 202.3 L133.3 199.5 L129.2 195.3 L125.2 191.4 L120.9 189.8 L119.7 190.8 L120.4 195.3 L123.6 200.1 L127.4 204.9 L130.4 208.8 L134.1 212.5 L138.3 214.9 L142.6 215.2Z" fill="url(#kjpk)" fill-rule="evenodd"></path><path d="M143.7 214.0 L143.2 209.8 L140.6 205.8 L136.8 202.3 L133.3 199.5 L129.2 195.3 L125.2 191.4 L120.9 189.8 L119.7 190.8 L120.4 195.3 L123.6 200.1 L127.4 204.9 L130.4 208.8 L134.1 212.5 L138.3 214.9 L142.6 215.2Z" fill="url(#kjshadeT)" fill-rule="evenodd"></path></g><path d="M147.0 214.1 L146.5 210.3 L144.3 206.6 L140.7 203.5 L137.1 200.8 L134.2 198.7 L130.7 194.8 L127.4 191.5 L123.7 189.9 L122.5 190.7 L122.5 194.8 L124.6 199.5 L128.3 204.1 L131.0 207.5 L134.4 210.9 L138.1 214.0 L142.1 215.5 L146.0 215.3Z" transform="translate(3 6)" fill="#000000" opacity="0.26" fill-rule="evenodd" filter="url(#kjsh)"></path><g filter="url(#kjedge)"><path d="M147.0 214.1 L146.5 210.3 L144.3 206.6 L140.7 203.5 L137.1 200.8 L134.2 198.7 L130.7 194.8 L127.4 191.5 L123.7 189.9 L122.5 190.7 L122.5 194.8 L124.6 199.5 L128.3 204.1 L131.0 207.5 L134.4 210.9 L138.1 214.0 L142.1 215.5 L146.0 215.3Z" fill="url(#kjpk)" fill-rule="evenodd"></path><path d="M147.0 214.1 L146.5 210.3 L144.3 206.6 L140.7 203.5 L137.1 200.8 L134.2 198.7 L130.7 194.8 L127.4 191.5 L123.7 189.9 L122.5 190.7 L122.5 194.8 L124.6 199.5 L128.3 204.1 L131.0 207.5 L134.4 210.9 L138.1 214.0 L142.1 215.5 L146.0 215.3Z" fill="url(#kjshadeT)" fill-rule="evenodd"></path></g><path d="M157.9 205.4 L156.8 201.5 L153.9 197.8 L149.7 195.0 L145.3 192.3 L141.6 189.8 L139.7 188.0 L138.7 183.4 L138.4 178.6 L136.6 174.4 L134.9 174.1 L131.9 177.8 L130.6 184.3 L133.0 191.3 L136.3 195.3 L140.0 199.0 L144.2 202.6 L148.5 205.7 L153.0 207.0 L157.0 206.7Z" transform="translate(3 6)" fill="#000000" opacity="0.26" fill-rule="evenodd" filter="url(#kjsh)"></path><g filter="url(#kjedge)"><path d="M157.9 205.4 L156.8 201.5 L153.9 197.8 L149.7 195.0 L145.3 192.3 L141.6 189.8 L139.7 188.0 L138.7 183.4 L138.4 178.6 L136.6 174.4 L134.9 174.1 L131.9 177.8 L130.6 184.3 L133.0 191.3 L136.3 195.3 L140.0 199.0 L144.2 202.6 L148.5 205.7 L153.0 207.0 L157.0 206.7Z" fill="url(#kjpk)" fill-rule="evenodd"></path><path d="M157.9 205.4 L156.8 201.5 L153.9 197.8 L149.7 195.0 L145.3 192.3 L141.6 189.8 L139.7 188.0 L138.7 183.4 L138.4 178.6 L136.6 174.4 L134.9 174.1 L131.9 177.8 L130.6 184.3 L133.0 191.3 L136.3 195.3 L140.0 199.0 L144.2 202.6 L148.5 205.7 L153.0 207.0 L157.0 206.7Z" fill="url(#kjshadeT)" fill-rule="evenodd"></path></g><path d="M159.9 206.0 L158.9 202.1 L155.9 198.1 L151.9 194.8 L148.5 191.4 L147.0 189.2 L146.7 185.5 L146.7 181.2 L144.9 177.1 L143.2 176.6 L139.6 179.6 L137.6 185.4 L139.1 192.3 L142.5 196.6 L146.5 200.6 L150.6 204.4 L155.0 206.7 L159.0 207.1Z" transform="translate(3 6)" fill="#000000" opacity="0.26" fill-rule="evenodd" filter="url(#kjsh)"></path><g filter="url(#kjedge)"><path d="M159.9 206.0 L158.9 202.1 L155.9 198.1 L151.9 194.8 L148.5 191.4 L147.0 189.2 L146.7 185.5 L146.7 181.2 L144.9 177.1 L143.2 176.6 L139.6 179.6 L137.6 185.4 L139.1 192.3 L142.5 196.6 L146.5 200.6 L150.6 204.4 L155.0 206.7 L159.0 207.1Z" fill="url(#kjpk)" fill-rule="evenodd"></path><path d="M159.9 206.0 L158.9 202.1 L155.9 198.1 L151.9 194.8 L148.5 191.4 L147.0 189.2 L146.7 185.5 L146.7 181.2 L144.9 177.1 L143.2 176.6 L139.6 179.6 L137.6 185.4 L139.1 192.3 L142.5 196.6 L146.5 200.6 L150.6 204.4 L155.0 206.7 L159.0 207.1Z" fill="url(#kjshadeT)" fill-rule="evenodd"></path></g><path d="M169.9 200.4 L171.8 196.6 L171.5 191.9 L170.1 186.8 L169.0 181.8 L167.3 177.1 L164.9 172.6 L161.6 169.3 L158.3 167.5 L157.0 168.1 L156.1 171.8 L156.6 176.4 L158.2 180.9 L160.0 185.0 L161.7 189.2 L162.9 194.1 L164.9 198.3 L168.3 200.8Z" transform="translate(3 6)" fill="#000000" opacity="0.26" fill-rule="evenodd" filter="url(#kjsh)"></path><g filter="url(#kjedge)"><path d="M169.9 200.4 L171.8 196.6 L171.5 191.9 L170.1 186.8 L169.0 181.8 L167.3 177.1 L164.9 172.6 L161.6 169.3 L158.3 167.5 L157.0 168.1 L156.1 171.8 L156.6 176.4 L158.2 180.9 L160.0 185.0 L161.7 189.2 L162.9 194.1 L164.9 198.3 L168.3 200.8Z" fill="url(#kjpk)" fill-rule="evenodd"></path><path d="M169.9 200.4 L171.8 196.6 L171.5 191.9 L170.1 186.8 L169.0 181.8 L167.3 177.1 L164.9 172.6 L161.6 169.3 L158.3 167.5 L157.0 168.1 L156.1 171.8 L156.6 176.4 L158.2 180.9 L160.0 185.0 L161.7 189.2 L162.9 194.1 L164.9 198.3 L168.3 200.8Z" fill="url(#kjshadeT)" fill-rule="evenodd"></path></g><path d="M180.5 195.1 L180.8 190.8 L179.4 185.8 L177.2 181.0 L175.6 177.5 L174.7 172.8 L174.0 167.7 L171.7 163.7 L170.1 163.6 L167.3 167.3 L166.0 173.1 L166.5 179.8 L168.5 185.2 L171.5 190.2 L175.4 194.0 L179.3 195.8Z" transform="translate(3 6)" fill="#000000" opacity="0.26" fill-rule="evenodd" filter="url(#kjsh)"></path><g filter="url(#kjedge)"><path d="M180.5 195.1 L180.8 190.8 L179.4 185.8 L177.2 181.0 L175.6 177.5 L174.7 172.8 L174.0 167.7 L171.7 163.7 L170.1 163.6 L167.3 167.3 L166.0 173.1 L166.5 179.8 L168.5 185.2 L171.5 190.2 L175.4 194.0 L179.3 195.8Z" fill="url(#kjpk)" fill-rule="evenodd"></path><path d="M180.5 195.1 L180.8 190.8 L179.4 185.8 L177.2 181.0 L175.6 177.5 L174.7 172.8 L174.0 167.7 L171.7 163.7 L170.1 163.6 L167.3 167.3 L166.0 173.1 L166.5 179.8 L168.5 185.2 L171.5 190.2 L175.4 194.0 L179.3 195.8Z" fill="url(#kjshadeT)" fill-rule="evenodd"></path></g><path d="M185.9 194.8 L186.5 191.0 L185.3 186.8 L183.3 182.5 L181.5 178.6 L180.8 176.2 L181.2 172.7 L181.9 169.0 L180.9 165.1 L179.4 164.3 L175.6 166.0 L172.5 170.5 L172.1 176.8 L173.6 181.6 L175.7 186.2 L178.1 190.6 L181.1 193.9 L184.5 195.5Z" transform="translate(3 6)" fill="#000000" opacity="0.26" fill-rule="evenodd" filter="url(#kjsh)"></path><g filter="url(#kjedge)"><path d="M185.9 194.8 L186.5 191.0 L185.3 186.8 L183.3 182.5 L181.5 178.6 L180.8 176.2 L181.2 172.7 L181.9 169.0 L180.9 165.1 L179.4 164.3 L175.6 166.0 L172.5 170.5 L172.1 176.8 L173.6 181.6 L175.7 186.2 L178.1 190.6 L181.1 193.9 L184.5 195.5Z" fill="url(#kjpk)" fill-rule="evenodd"></path><path d="M185.9 194.8 L186.5 191.0 L185.3 186.8 L183.3 182.5 L181.5 178.6 L180.8 176.2 L181.2 172.7 L181.9 169.0 L180.9 165.1 L179.4 164.3 L175.6 166.0 L172.5 170.5 L172.1 176.8 L173.6 181.6 L175.7 186.2 L178.1 190.6 L181.1 193.9 L184.5 195.5Z" fill="url(#kjshadeT)" fill-rule="evenodd"></path></g><path d="M197.6 189.8 L199.2 186.3 L199.3 181.9 L198.4 177.5 L197.8 173.8 L197.7 168.7 L197.0 163.4 L194.0 159.4 L192.2 159.3 L188.8 163.0 L187.6 168.7 L188.0 174.8 L189.0 179.6 L190.5 184.3 L192.9 188.1 L196.2 190.2Z" transform="translate(3 6)" fill="#000000" opacity="0.26" fill-rule="evenodd" filter="url(#kjsh)"></path><g filter="url(#kjedge)"><path d="M197.6 189.8 L199.2 186.3 L199.3 181.9 L198.4 177.5 L197.8 173.8 L197.7 168.7 L197.0 163.4 L194.0 159.4 L192.2 159.3 L188.8 163.0 L187.6 168.7 L188.0 174.8 L189.0 179.6 L190.5 184.3 L192.9 188.1 L196.2 190.2Z" fill="url(#kjpk)" fill-rule="evenodd"></path><path d="M197.6 189.8 L199.2 186.3 L199.3 181.9 L198.4 177.5 L197.8 173.8 L197.7 168.7 L197.0 163.4 L194.0 159.4 L192.2 159.3 L188.8 163.0 L187.6 168.7 L188.0 174.8 L189.0 179.6 L190.5 184.3 L192.9 188.1 L196.2 190.2Z" fill="url(#kjshadeT)" fill-rule="evenodd"></path></g><path d="M200.1 191.6 L202.3 188.6 L203.1 184.6 L202.9 179.9 L202.6 175.1 L202.6 170.5 L202.8 166.7 L203.2 160.5 L202.0 155.2 L199.3 151.4 L197.6 151.4 L194.6 154.9 L192.9 160.3 L193.2 166.8 L193.7 170.8 L194.1 175.5 L194.3 180.4 L194.6 185.1 L195.9 189.0 L198.4 191.6Z" transform="translate(3 6)" fill="#000000" opacity="0.26" fill-rule="evenodd" filter="url(#kjsh)"></path><g filter="url(#kjedge)"><path d="M200.1 191.6 L202.3 188.6 L203.1 184.6 L202.9 179.9 L202.6 175.1 L202.6 170.5 L202.8 166.7 L203.2 160.5 L202.0 155.2 L199.3 151.4 L197.6 151.4 L194.6 154.9 L192.9 160.3 L193.2 166.8 L193.7 170.8 L194.1 175.5 L194.3 180.4 L194.6 185.1 L195.9 189.0 L198.4 191.6Z" fill="url(#kjpk)" fill-rule="evenodd"></path><path d="M200.1 191.6 L202.3 188.6 L203.1 184.6 L202.9 179.9 L202.6 175.1 L202.6 170.5 L202.8 166.7 L203.2 160.5 L202.0 155.2 L199.3 151.4 L197.6 151.4 L194.6 154.9 L192.9 160.3 L193.2 166.8 L193.7 170.8 L194.1 175.5 L194.3 180.4 L194.6 185.1 L195.9 189.0 L198.4 191.6Z" fill="url(#kjshadeT)" fill-rule="evenodd"></path></g><path d="M207.8 189.0 L208.5 184.8 L206.9 180.2 L204.8 176.3 L204.3 173.7 L205.8 171.5 L208.7 168.2 L211.2 164.1 L211.7 159.8 L210.5 158.7 L206.4 159.3 L201.9 162.1 L198.3 166.9 L196.3 172.6 L197.1 178.6 L199.2 184.1 L202.4 188.2 L206.4 189.8Z" transform="translate(3 6)" fill="#000000" opacity="0.26" fill-rule="evenodd" filter="url(#kjsh)"></path><g filter="url(#kjedge)"><path d="M207.8 189.0 L208.5 184.8 L206.9 180.2 L204.8 176.3 L204.3 173.7 L205.8 171.5 L208.7 168.2 L211.2 164.1 L211.7 159.8 L210.5 158.7 L206.4 159.3 L201.9 162.1 L198.3 166.9 L196.3 172.6 L197.1 178.6 L199.2 184.1 L202.4 188.2 L206.4 189.8Z" fill="url(#kjpk)" fill-rule="evenodd"></path><path d="M207.8 189.0 L208.5 184.8 L206.9 180.2 L204.8 176.3 L204.3 173.7 L205.8 171.5 L208.7 168.2 L211.2 164.1 L211.7 159.8 L210.5 158.7 L206.4 159.3 L201.9 162.1 L198.3 166.9 L196.3 172.6 L197.1 178.6 L199.2 184.1 L202.4 188.2 L206.4 189.8Z" fill="url(#kjshadeT)" fill-rule="evenodd"></path></g><path d="M220.5 191.2 L222.2 187.0 L221.9 182.1 L220.4 177.6 L219.9 174.4 L221.2 171.6 L224.3 168.2 L226.8 164.1 L227.3 160.0 L226.3 159.0 L222.2 159.8 L218.0 162.6 L214.5 167.3 L212.1 172.7 L211.5 178.7 L212.5 184.7 L215.3 189.2 L219.0 191.7Z" transform="translate(3 6)" fill="#000000" opacity="0.26" fill-rule="evenodd" filter="url(#kjsh)"></path><g filter="url(#kjedge)"><path d="M220.5 191.2 L222.2 187.0 L221.9 182.1 L220.4 177.6 L219.9 174.4 L221.2 171.6 L224.3 168.2 L226.8 164.1 L227.3 160.0 L226.3 159.0 L222.2 159.8 L218.0 162.6 L214.5 167.3 L212.1 172.7 L211.5 178.7 L212.5 184.7 L215.3 189.2 L219.0 191.7Z" fill="url(#kjpk)" fill-rule="evenodd"></path><path d="M220.5 191.2 L222.2 187.0 L221.9 182.1 L220.4 177.6 L219.9 174.4 L221.2 171.6 L224.3 168.2 L226.8 164.1 L227.3 160.0 L226.3 159.0 L222.2 159.8 L218.0 162.6 L214.5 167.3 L212.1 172.7 L211.5 178.7 L212.5 184.7 L215.3 189.2 L219.0 191.7Z" fill="url(#kjshadeT)" fill-rule="evenodd"></path></g><path d="M226.9 192.6 L229.5 189.8 L231.2 185.5 L232.4 180.6 L233.3 175.4 L234.4 170.6 L235.5 166.8 L237.4 162.6 L240.1 158.4 L242.8 154.2 L244.9 150.2 L245.3 146.4 L244.0 145.4 L240.5 146.6 L236.9 149.3 L233.1 153.3 L229.7 158.0 L226.9 163.2 L225.2 168.2 L224.1 173.7 L223.3 179.2 L223.1 184.5 L223.7 189.0 L225.4 192.3Z" transform="translate(3 6)" fill="#000000" opacity="0.26" fill-rule="evenodd" filter="url(#kjsh)"></path><g filter="url(#kjedge)"><path d="M226.9 192.6 L229.5 189.8 L231.2 185.5 L232.4 180.6 L233.3 175.4 L234.4 170.6 L235.5 166.8 L237.4 162.6 L240.1 158.4 L242.8 154.2 L244.9 150.2 L245.3 146.4 L244.0 145.4 L240.5 146.6 L236.9 149.3 L233.1 153.3 L229.7 158.0 L226.9 163.2 L225.2 168.2 L224.1 173.7 L223.3 179.2 L223.1 184.5 L223.7 189.0 L225.4 192.3Z" fill="url(#kjpk)" fill-rule="evenodd"></path><path d="M226.9 192.6 L229.5 189.8 L231.2 185.5 L232.4 180.6 L233.3 175.4 L234.4 170.6 L235.5 166.8 L237.4 162.6 L240.1 158.4 L242.8 154.2 L244.9 150.2 L245.3 146.4 L244.0 145.4 L240.5 146.6 L236.9 149.3 L233.1 153.3 L229.7 158.0 L226.9 163.2 L225.2 168.2 L224.1 173.7 L223.3 179.2 L223.1 184.5 L223.7 189.0 L225.4 192.3Z" fill="url(#kjshadeT)" fill-rule="evenodd"></path></g><path d="M234.4 190.0 L236.7 186.9 L238.6 182.2 L239.9 177.1 L241.2 172.3 L242.1 168.9 L244.4 165.3 L248.3 161.8 L252.1 158.3 L253.9 154.5 L253.0 153.1 L248.8 153.4 L243.8 155.6 L238.6 159.4 L234.1 164.2 L231.7 169.6 L230.8 175.5 L230.6 181.3 L231.4 186.3 L232.9 189.8Z" transform="translate(3 6)" fill="#000000" opacity="0.26" fill-rule="evenodd" filter="url(#kjsh)"></path><g filter="url(#kjedge)"><path d="M234.4 190.0 L236.7 186.9 L238.6 182.2 L239.9 177.1 L241.2 172.3 L242.1 168.9 L244.4 165.3 L248.3 161.8 L252.1 158.3 L253.9 154.5 L253.0 153.1 L248.8 153.4 L243.8 155.6 L238.6 159.4 L234.1 164.2 L231.7 169.6 L230.8 175.5 L230.6 181.3 L231.4 186.3 L232.9 189.8Z" fill="url(#kjpk)" fill-rule="evenodd"></path><path d="M234.4 190.0 L236.7 186.9 L238.6 182.2 L239.9 177.1 L241.2 172.3 L242.1 168.9 L244.4 165.3 L248.3 161.8 L252.1 158.3 L253.9 154.5 L253.0 153.1 L248.8 153.4 L243.8 155.6 L238.6 159.4 L234.1 164.2 L231.7 169.6 L230.8 175.5 L230.6 181.3 L231.4 186.3 L232.9 189.8Z" fill="url(#kjshadeT)" fill-rule="evenodd"></path></g><path d="M247.7 195.9 L251.5 194.1 L254.0 190.4 L255.3 185.7 L256.9 181.2 L258.3 177.9 L260.8 173.5 L262.5 169.3 L262.3 165.2 L260.9 164.2 L256.9 165.2 L253.0 168.5 L250.0 173.7 L248.2 177.8 L246.4 182.4 L244.4 187.0 L244.2 191.5 L246.0 195.3Z" transform="translate(3 6)" fill="#000000" opacity="0.26" fill-rule="evenodd" filter="url(#kjsh)"></path><g filter="url(#kjedge)"><path d="M247.7 195.9 L251.5 194.1 L254.0 190.4 L255.3 185.7 L256.9 181.2 L258.3 177.9 L260.8 173.5 L262.5 169.3 L262.3 165.2 L260.9 164.2 L256.9 165.2 L253.0 168.5 L250.0 173.7 L248.2 177.8 L246.4 182.4 L244.4 187.0 L244.2 191.5 L246.0 195.3Z" fill="url(#kjpk)" fill-rule="evenodd"></path><path d="M247.7 195.9 L251.5 194.1 L254.0 190.4 L255.3 185.7 L256.9 181.2 L258.3 177.9 L260.8 173.5 L262.5 169.3 L262.3 165.2 L260.9 164.2 L256.9 165.2 L253.0 168.5 L250.0 173.7 L248.2 177.8 L246.4 182.4 L244.4 187.0 L244.2 191.5 L246.0 195.3Z" fill="url(#kjshadeT)" fill-rule="evenodd"></path></g><path d="M256.3 200.1 L260.9 199.0 L264.7 195.2 L268.0 190.5 L271.2 186.9 L275.1 182.9 L278.1 178.6 L278.5 173.8 L277.2 172.6 L272.4 173.0 L268.0 176.2 L264.2 180.9 L261.0 185.1 L257.3 189.6 L254.7 194.4 L254.9 199.1Z" transform="translate(3 6)" fill="#000000" opacity="0.26" fill-rule="evenodd" filter="url(#kjsh)"></path><g filter="url(#kjedge)"><path d="M256.3 200.1 L260.9 199.0 L264.7 195.2 L268.0 190.5 L271.2 186.9 L275.1 182.9 L278.1 178.6 L278.5 173.8 L277.2 172.6 L272.4 173.0 L268.0 176.2 L264.2 180.9 L261.0 185.1 L257.3 189.6 L254.7 194.4 L254.9 199.1Z" fill="url(#kjpk)" fill-rule="evenodd"></path><path d="M256.3 200.1 L260.9 199.0 L264.7 195.2 L268.0 190.5 L271.2 186.9 L275.1 182.9 L278.1 178.6 L278.5 173.8 L277.2 172.6 L272.4 173.0 L268.0 176.2 L264.2 180.9 L261.0 185.1 L257.3 189.6 L254.7 194.4 L254.9 199.1Z" fill="url(#kjshadeT)" fill-rule="evenodd"></path></g><path d="M262.2 198.6 L266.2 195.8 L269.0 191.3 L271.1 187.8 L273.5 186.2 L277.9 184.9 L282.3 183.2 L284.8 179.8 L284.4 178.1 L280.5 176.3 L275.6 177.0 L270.4 178.8 L265.2 181.5 L260.8 186.9 L259.4 193.2 L260.7 198.1Z" transform="translate(3 6)" fill="#000000" opacity="0.26" fill-rule="evenodd" filter="url(#kjsh)"></path><g filter="url(#kjedge)"><path d="M262.2 198.6 L266.2 195.8 L269.0 191.3 L271.1 187.8 L273.5 186.2 L277.9 184.9 L282.3 183.2 L284.8 179.8 L284.4 178.1 L280.5 176.3 L275.6 177.0 L270.4 178.8 L265.2 181.5 L260.8 186.9 L259.4 193.2 L260.7 198.1Z" fill="url(#kjpk)" fill-rule="evenodd"></path><path d="M262.2 198.6 L266.2 195.8 L269.0 191.3 L271.1 187.8 L273.5 186.2 L277.9 184.9 L282.3 183.2 L284.8 179.8 L284.4 178.1 L280.5 176.3 L275.6 177.0 L270.4 178.8 L265.2 181.5 L260.8 186.9 L259.4 193.2 L260.7 198.1Z" fill="url(#kjshadeT)" fill-rule="evenodd"></path></g><path d="M272.2 205.5 L276.0 204.1 L279.2 200.8 L282.1 196.8 L284.8 193.0 L287.7 190.2 L290.6 188.4 L294.7 186.4 L299.4 184.7 L304.0 183.2 L307.9 181.5 L310.2 178.5 L309.8 176.7 L306.3 175.4 L302.1 175.8 L297.1 176.9 L291.8 178.3 L286.6 180.0 L281.9 182.4 L277.5 186.5 L273.8 191.2 L271.3 196.1 L270.1 200.7 L270.7 204.6Z" transform="translate(3 6)" fill="#000000" opacity="0.26" fill-rule="evenodd" filter="url(#kjsh)"></path><g filter="url(#kjedge)"><path d="M272.2 205.5 L276.0 204.1 L279.2 200.8 L282.1 196.8 L284.8 193.0 L287.7 190.2 L290.6 188.4 L294.7 186.4 L299.4 184.7 L304.0 183.2 L307.9 181.5 L310.2 178.5 L309.8 176.7 L306.3 175.4 L302.1 175.8 L297.1 176.9 L291.8 178.3 L286.6 180.0 L281.9 182.4 L277.5 186.5 L273.8 191.2 L271.3 196.1 L270.1 200.7 L270.7 204.6Z" fill="url(#kjpk)" fill-rule="evenodd"></path><path d="M272.2 205.5 L276.0 204.1 L279.2 200.8 L282.1 196.8 L284.8 193.0 L287.7 190.2 L290.6 188.4 L294.7 186.4 L299.4 184.7 L304.0 183.2 L307.9 181.5 L310.2 178.5 L309.8 176.7 L306.3 175.4 L302.1 175.8 L297.1 176.9 L291.8 178.3 L286.6 180.0 L281.9 182.4 L277.5 186.5 L273.8 191.2 L271.3 196.1 L270.1 200.7 L270.7 204.6Z" fill="url(#kjshadeT)" fill-rule="evenodd"></path></g><path d="M274.2 208.5 L277.5 207.8 L280.5 205.4 L283.6 202.4 L286.7 199.1 L290.0 196.2 L293.2 194.2 L296.9 192.9 L301.5 191.8 L306.2 190.8 L310.6 188.9 L314.3 186.7 L316.7 184.0 L316.3 182.5 L313.1 181.3 L308.8 180.8 L303.8 181.2 L298.7 182.8 L293.8 184.9 L289.4 187.5 L285.4 190.4 L281.6 193.8 L278.1 197.3 L275.3 200.9 L273.3 204.1 L273.0 207.4Z" transform="translate(3 6)" fill="#000000" opacity="0.26" fill-rule="evenodd" filter="url(#kjsh)"></path><g filter="url(#kjedge)"><path d="M274.2 208.5 L277.5 207.8 L280.5 205.4 L283.6 202.4 L286.7 199.1 L290.0 196.2 L293.2 194.2 L296.9 192.9 L301.5 191.8 L306.2 190.8 L310.6 188.9 L314.3 186.7 L316.7 184.0 L316.3 182.5 L313.1 181.3 L308.8 180.8 L303.8 181.2 L298.7 182.8 L293.8 184.9 L289.4 187.5 L285.4 190.4 L281.6 193.8 L278.1 197.3 L275.3 200.9 L273.3 204.1 L273.0 207.4Z" fill="url(#kjpk)" fill-rule="evenodd"></path><path d="M274.2 208.5 L277.5 207.8 L280.5 205.4 L283.6 202.4 L286.7 199.1 L290.0 196.2 L293.2 194.2 L296.9 192.9 L301.5 191.8 L306.2 190.8 L310.6 188.9 L314.3 186.7 L316.7 184.0 L316.3 182.5 L313.1 181.3 L308.8 180.8 L303.8 181.2 L298.7 182.8 L293.8 184.9 L289.4 187.5 L285.4 190.4 L281.6 193.8 L278.1 197.3 L275.3 200.9 L273.3 204.1 L273.0 207.4Z" fill="url(#kjshadeT)" fill-rule="evenodd"></path></g><path d="M282.8 214.0 L287.8 212.5 L291.6 208.5 L294.7 205.9 L298.3 204.9 L303.2 203.3 L306.9 200.2 L306.9 198.8 L302.7 196.1 L296.5 195.4 L289.9 197.4 L284.8 202.2 L281.3 207.6 L281.3 213.0Z" transform="translate(3 6)" fill="#000000" opacity="0.26" fill-rule="evenodd" filter="url(#kjsh)"></path><g filter="url(#kjedge)"><path d="M282.8 214.0 L287.8 212.5 L291.6 208.5 L294.7 205.9 L298.3 204.9 L303.2 203.3 L306.9 200.2 L306.9 198.8 L302.7 196.1 L296.5 195.4 L289.9 197.4 L284.8 202.2 L281.3 207.6 L281.3 213.0Z" fill="url(#kjpk)" fill-rule="evenodd"></path><path d="M282.8 214.0 L287.8 212.5 L291.6 208.5 L294.7 205.9 L298.3 204.9 L303.2 203.3 L306.9 200.2 L306.9 198.8 L302.7 196.1 L296.5 195.4 L289.9 197.4 L284.8 202.2 L281.3 207.6 L281.3 213.0Z" fill="url(#kjshadeT)" fill-rule="evenodd"></path></g><path d="M284.5 218.3 L288.0 219.7 L292.1 219.6 L296.3 218.0 L300.8 216.1 L305.3 214.2 L309.3 212.6 L312.5 211.5 L317.9 209.4 L321.3 207.1 L323.0 204.1 L322.5 202.6 L319.3 201.3 L315.1 201.5 L309.6 203.3 L306.3 204.6 L302.2 206.1 L297.6 207.6 L293.0 209.1 L288.7 210.8 L285.6 213.4 L284.0 216.8Z" transform="translate(3 6)" fill="#000000" opacity="0.26" fill-rule="evenodd" filter="url(#kjsh)"></path><g filter="url(#kjedge)"><path d="M284.5 218.3 L288.0 219.7 L292.1 219.6 L296.3 218.0 L300.8 216.1 L305.3 214.2 L309.3 212.6 L312.5 211.5 L317.9 209.4 L321.3 207.1 L323.0 204.1 L322.5 202.6 L319.3 201.3 L315.1 201.5 L309.6 203.3 L306.3 204.6 L302.2 206.1 L297.6 207.6 L293.0 209.1 L288.7 210.8 L285.6 213.4 L284.0 216.8Z" fill="url(#kjpk)" fill-rule="evenodd"></path><path d="M284.5 218.3 L288.0 219.7 L292.1 219.6 L296.3 218.0 L300.8 216.1 L305.3 214.2 L309.3 212.6 L312.5 211.5 L317.9 209.4 L321.3 207.1 L323.0 204.1 L322.5 202.6 L319.3 201.3 L315.1 201.5 L309.6 203.3 L306.3 204.6 L302.2 206.1 L297.6 207.6 L293.0 209.1 L288.7 210.8 L285.6 213.4 L284.0 216.8Z" fill="url(#kjshadeT)" fill-rule="evenodd"></path></g><path d="M289.8 223.3 L293.6 223.3 L297.8 221.4 L302.1 218.5 L306.6 215.8 L310.7 213.9 L312.6 213.3 L316.6 212.6 L320.0 212.1 L320.9 210.9 L318.7 205.9 L311.5 204.2 L306.9 206.7 L302.8 209.5 L298.3 212.5 L293.8 215.4 L290.5 218.6 L289.0 222.0Z" transform="translate(3 6)" fill="#000000" opacity="0.26" fill-rule="evenodd" filter="url(#kjsh)"></path><g filter="url(#kjedge)"><path d="M289.8 223.3 L293.6 223.3 L297.8 221.4 L302.1 218.5 L306.6 215.8 L310.7 213.9 L312.6 213.3 L316.6 212.6 L320.0 212.1 L320.9 210.9 L318.7 205.9 L311.5 204.2 L306.9 206.7 L302.8 209.5 L298.3 212.5 L293.8 215.4 L290.5 218.6 L289.0 222.0Z" fill="url(#kjpk)" fill-rule="evenodd"></path><path d="M289.8 223.3 L293.6 223.3 L297.8 221.4 L302.1 218.5 L306.6 215.8 L310.7 213.9 L312.6 213.3 L316.6 212.6 L320.0 212.1 L320.9 210.9 L318.7 205.9 L311.5 204.2 L306.9 206.7 L302.8 209.5 L298.3 212.5 L293.8 215.4 L290.5 218.6 L289.0 222.0Z" fill="url(#kjshadeT)" fill-rule="evenodd"></path></g><path d="M294.4 228.8 L297.9 231.1 L302.1 231.2 L306.4 229.7 L310.6 228.4 L314.0 227.5 L319.7 227.4 L325.3 227.4 L329.6 225.9 L329.8 224.4 L326.1 221.6 L320.3 220.0 L313.6 219.6 L309.0 219.8 L304.2 220.5 L299.5 221.3 L295.9 223.5 L293.9 227.2Z" transform="translate(3 6)" fill="#000000" opacity="0.26" fill-rule="evenodd" filter="url(#kjsh)"></path><g filter="url(#kjedge)"><path d="M294.4 228.8 L297.9 231.1 L302.1 231.2 L306.4 229.7 L310.6 228.4 L314.0 227.5 L319.7 227.4 L325.3 227.4 L329.6 225.9 L329.8 224.4 L326.1 221.6 L320.3 220.0 L313.6 219.6 L309.0 219.8 L304.2 220.5 L299.5 221.3 L295.9 223.5 L293.9 227.2Z" fill="url(#kjpk)" fill-rule="evenodd"></path><path d="M294.4 228.8 L297.9 231.1 L302.1 231.2 L306.4 229.7 L310.6 228.4 L314.0 227.5 L319.7 227.4 L325.3 227.4 L329.6 225.9 L329.8 224.4 L326.1 221.6 L320.3 220.0 L313.6 219.6 L309.0 219.8 L304.2 220.5 L299.5 221.3 L295.9 223.5 L293.9 227.2Z" fill="url(#kjshadeT)" fill-rule="evenodd"></path></g><path d="M298.5 238.8 L302.0 240.0 L306.4 240.1 L310.8 239.3 L314.8 239.0 L318.3 239.4 L322.6 240.8 L327.0 242.2 L331.4 242.1 L334.9 240.9 L335.4 239.5 L333.3 236.5 L329.8 233.7 L325.0 232.3 L320.0 231.2 L315.1 230.4 L309.6 230.6 L304.4 232.0 L300.4 234.5 L298.1 237.4Z" transform="translate(3 6)" fill="#000000" opacity="0.26" fill-rule="evenodd" filter="url(#kjsh)"></path><g filter="url(#kjedge)"><path d="M298.5 238.8 L302.0 240.0 L306.4 240.1 L310.8 239.3 L314.8 239.0 L318.3 239.4 L322.6 240.8 L327.0 242.2 L331.4 242.1 L334.9 240.9 L335.4 239.5 L333.3 236.5 L329.8 233.7 L325.0 232.3 L320.0 231.2 L315.1 230.4 L309.6 230.6 L304.4 232.0 L300.4 234.5 L298.1 237.4Z" fill="url(#kjpk)" fill-rule="evenodd"></path><path d="M298.5 238.8 L302.0 240.0 L306.4 240.1 L310.8 239.3 L314.8 239.0 L318.3 239.4 L322.6 240.8 L327.0 242.2 L331.4 242.1 L334.9 240.9 L335.4 239.5 L333.3 236.5 L329.8 233.7 L325.0 232.3 L320.0 231.2 L315.1 230.4 L309.6 230.6 L304.4 232.0 L300.4 234.5 L298.1 237.4Z" fill="url(#kjshadeT)" fill-rule="evenodd"></path></g><path d="M295.9 243.9 L299.5 245.8 L304.5 246.3 L309.9 245.9 L315.1 245.9 L318.6 246.0 L323.2 247.4 L327.4 249.0 L331.6 248.8 L332.5 247.4 L331.0 243.4 L326.6 239.8 L320.3 237.7 L315.0 237.3 L309.4 237.8 L303.7 238.5 L298.9 239.9 L295.7 242.5Z" transform="translate(3 6)" fill="#000000" opacity="0.26" fill-rule="evenodd" filter="url(#kjsh)"></path><g filter="url(#kjedge)"><path d="M295.9 243.9 L299.5 245.8 L304.5 246.3 L309.9 245.9 L315.1 245.9 L318.6 246.0 L323.2 247.4 L327.4 249.0 L331.6 248.8 L332.5 247.4 L331.0 243.4 L326.6 239.8 L320.3 237.7 L315.0 237.3 L309.4 237.8 L303.7 238.5 L298.9 239.9 L295.7 242.5Z" fill="url(#kjpk)" fill-rule="evenodd"></path><path d="M295.9 243.9 L299.5 245.8 L304.5 246.3 L309.9 245.9 L315.1 245.9 L318.6 246.0 L323.2 247.4 L327.4 249.0 L331.6 248.8 L332.5 247.4 L331.0 243.4 L326.6 239.8 L320.3 237.7 L315.0 237.3 L309.4 237.8 L303.7 238.5 L298.9 239.9 L295.7 242.5Z" fill="url(#kjshadeT)" fill-rule="evenodd"></path></g><path d="M296.0 245.4 L298.8 247.8 L302.9 248.9 L307.5 249.1 L312.0 249.4 L315.9 249.8 L320.5 250.5 L325.4 251.0 L330.0 250.7 L333.5 249.7 L333.9 248.4 L331.4 245.7 L327.4 243.0 L322.4 241.2 L317.1 240.1 L312.5 239.9 L307.6 240.0 L302.8 240.2 L298.8 241.4 L295.9 243.8Z" transform="translate(3 6)" fill="#000000" opacity="0.26" fill-rule="evenodd" filter="url(#kjsh)"></path><g filter="url(#kjedge)"><path d="M296.0 245.4 L298.8 247.8 L302.9 248.9 L307.5 249.1 L312.0 249.4 L315.9 249.8 L320.5 250.5 L325.4 251.0 L330.0 250.7 L333.5 249.7 L333.9 248.4 L331.4 245.7 L327.4 243.0 L322.4 241.2 L317.1 240.1 L312.5 239.9 L307.6 240.0 L302.8 240.2 L298.8 241.4 L295.9 243.8Z" fill="url(#kjpk)" fill-rule="evenodd"></path><path d="M296.0 245.4 L298.8 247.8 L302.9 248.9 L307.5 249.1 L312.0 249.4 L315.9 249.8 L320.5 250.5 L325.4 251.0 L330.0 250.7 L333.5 249.7 L333.9 248.4 L331.4 245.7 L327.4 243.0 L322.4 241.2 L317.1 240.1 L312.5 239.9 L307.6 240.0 L302.8 240.2 L298.8 241.4 L295.9 243.8Z" fill="url(#kjshadeT)" fill-rule="evenodd"></path></g><path d="M297.4 253.4 L300.7 255.1 L305.1 255.8 L310.0 255.6 L314.8 255.3 L318.7 255.6 L322.5 256.4 L326.6 257.9 L330.7 259.6 L334.6 260.5 L338.1 259.9 L338.7 258.5 L337.1 255.4 L334.0 252.8 L329.7 250.7 L324.9 248.7 L320.1 247.3 L314.9 247.0 L309.5 247.2 L304.3 247.8 L300.1 249.6 L297.2 251.9Z" transform="translate(3 6)" fill="#000000" opacity="0.26" fill-rule="evenodd" filter="url(#kjsh)"></path><g filter="url(#kjedge)"><path d="M297.4 253.4 L300.7 255.1 L305.1 255.8 L310.0 255.6 L314.8 255.3 L318.7 255.6 L322.5 256.4 L326.6 257.9 L330.7 259.6 L334.6 260.5 L338.1 259.9 L338.7 258.5 L337.1 255.4 L334.0 252.8 L329.7 250.7 L324.9 248.7 L320.1 247.3 L314.9 247.0 L309.5 247.2 L304.3 247.8 L300.1 249.6 L297.2 251.9Z" fill="url(#kjpk)" fill-rule="evenodd"></path><path d="M297.4 253.4 L300.7 255.1 L305.1 255.8 L310.0 255.6 L314.8 255.3 L318.7 255.6 L322.5 256.4 L326.6 257.9 L330.7 259.6 L334.6 260.5 L338.1 259.9 L338.7 258.5 L337.1 255.4 L334.0 252.8 L329.7 250.7 L324.9 248.7 L320.1 247.3 L314.9 247.0 L309.5 247.2 L304.3 247.8 L300.1 249.6 L297.2 251.9Z" fill="url(#kjshadeT)" fill-rule="evenodd"></path></g><path d="M295.7 263.1 L298.6 266.2 L303.2 267.1 L308.4 267.6 L313.0 268.5 L315.2 269.2 L319.1 271.8 L322.9 273.5 L324.4 272.8 L324.8 267.3 L319.8 261.7 L314.6 260.5 L309.4 259.9 L304.1 259.1 L299.4 259.0 L295.9 261.4Z" transform="translate(3 6)" fill="#000000" opacity="0.26" fill-rule="evenodd" filter="url(#kjsh)"></path><g filter="url(#kjedge)"><path d="M295.7 263.1 L298.6 266.2 L303.2 267.1 L308.4 267.6 L313.0 268.5 L315.2 269.2 L319.1 271.8 L322.9 273.5 L324.4 272.8 L324.8 267.3 L319.8 261.7 L314.6 260.5 L309.4 259.9 L304.1 259.1 L299.4 259.0 L295.9 261.4Z" fill="url(#kjpk)" fill-rule="evenodd"></path><path d="M295.7 263.1 L298.6 266.2 L303.2 267.1 L308.4 267.6 L313.0 268.5 L315.2 269.2 L319.1 271.8 L322.9 273.5 L324.4 272.8 L324.8 267.3 L319.8 261.7 L314.6 260.5 L309.4 259.9 L304.1 259.1 L299.4 259.0 L295.9 261.4Z" fill="url(#kjshadeT)" fill-rule="evenodd"></path></g><path d="M302.1 256.0 L302.4 260.0 L302.4 264.0 L302.1 268.1 L301.2 272.2 L299.8 276.2 L297.7 280.1 L295.5 283.1 L292.8 286.1 L289.8 289.2 L286.4 292.1 L282.8 295.0 L279.0 297.7 L275.1 300.2 L271.1 302.4 L267.4 304.1 L263.6 305.6 L259.6 307.1 L255.5 308.3 L251.2 309.4 L246.9 310.4 L242.6 311.1 L238.2 311.7 L233.9 312.1 L230.0 312.3 L226.0 312.2 L221.9 311.9 L217.8 311.5 L213.7 311.0 L209.6 310.4 L205.5 309.8 L201.5 309.1 L197.6 308.5 L193.8 307.9 L189.1 307.3 L184.6 306.9 L180.1 306.4 L175.7 305.9 L171.4 305.2 L167.2 304.4 L163.1 303.3 L159.1 301.8 L155.0 299.9 L150.9 297.6 L146.7 295.1 L142.7 292.4 L139.0 289.5 L135.5 286.5 L132.5 283.6 L130.1 280.7 L127.6 276.7 L126.0 272.7 L125.0 268.5 L124.5 264.3 L124.5 260.1 L124.7 256.0 L125.2 251.8 L126.2 247.6 L127.5 243.4 L129.3 239.3 L131.3 235.3 L133.7 231.6 L136.0 228.5 L138.5 225.6 L141.2 222.8 L144.1 220.1 L147.4 217.6 L151.1 215.2 L155.2 212.9 L158.4 211.4 L161.9 209.8 L165.7 208.4 L169.6 207.0 L173.7 205.7 L177.8 204.4 L182.1 203.3 L186.3 202.3 L190.4 201.5 L194.5 200.8 L198.5 200.3 L202.6 200.0 L206.7 199.8 L210.9 199.7 L215.0 199.7 L219.1 199.9 L223.2 200.1 L227.2 200.4 L231.0 200.8 L234.7 201.3 L239.2 201.9 L243.5 202.6 L247.6 203.5 L251.7 204.5 L255.6 205.6 L259.5 207.0 L263.3 208.6 L267.0 210.4 L270.8 212.6 L274.6 215.1 L278.5 217.9 L282.2 220.9 L285.7 223.9 L289.0 227.1 L291.9 230.1 L294.3 233.0 L296.9 236.8 L298.8 240.6 L300.2 244.4 L301.2 248.2 L301.8 252.1Z" transform="translate(3 6)" fill="#000000" opacity="0.26" fill-rule="evenodd" filter="url(#kjsh)"></path><g filter="url(#kjedge)"><path d="M302.1 256.0 L302.4 260.0 L302.4 264.0 L302.1 268.1 L301.2 272.2 L299.8 276.2 L297.7 280.1 L295.5 283.1 L292.8 286.1 L289.8 289.2 L286.4 292.1 L282.8 295.0 L279.0 297.7 L275.1 300.2 L271.1 302.4 L267.4 304.1 L263.6 305.6 L259.6 307.1 L255.5 308.3 L251.2 309.4 L246.9 310.4 L242.6 311.1 L238.2 311.7 L233.9 312.1 L230.0 312.3 L226.0 312.2 L221.9 311.9 L217.8 311.5 L213.7 311.0 L209.6 310.4 L205.5 309.8 L201.5 309.1 L197.6 308.5 L193.8 307.9 L189.1 307.3 L184.6 306.9 L180.1 306.4 L175.7 305.9 L171.4 305.2 L167.2 304.4 L163.1 303.3 L159.1 301.8 L155.0 299.9 L150.9 297.6 L146.7 295.1 L142.7 292.4 L139.0 289.5 L135.5 286.5 L132.5 283.6 L130.1 280.7 L127.6 276.7 L126.0 272.7 L125.0 268.5 L124.5 264.3 L124.5 260.1 L124.7 256.0 L125.2 251.8 L126.2 247.6 L127.5 243.4 L129.3 239.3 L131.3 235.3 L133.7 231.6 L136.0 228.5 L138.5 225.6 L141.2 222.8 L144.1 220.1 L147.4 217.6 L151.1 215.2 L155.2 212.9 L158.4 211.4 L161.9 209.8 L165.7 208.4 L169.6 207.0 L173.7 205.7 L177.8 204.4 L182.1 203.3 L186.3 202.3 L190.4 201.5 L194.5 200.8 L198.5 200.3 L202.6 200.0 L206.7 199.8 L210.9 199.7 L215.0 199.7 L219.1 199.9 L223.2 200.1 L227.2 200.4 L231.0 200.8 L234.7 201.3 L239.2 201.9 L243.5 202.6 L247.6 203.5 L251.7 204.5 L255.6 205.6 L259.5 207.0 L263.3 208.6 L267.0 210.4 L270.8 212.6 L274.6 215.1 L278.5 217.9 L282.2 220.9 L285.7 223.9 L289.0 227.1 L291.9 230.1 L294.3 233.0 L296.9 236.8 L298.8 240.6 L300.2 244.4 L301.2 248.2 L301.8 252.1Z" fill="url(#kjpk)" fill-rule="evenodd"></path><path d="M302.1 256.0 L302.4 260.0 L302.4 264.0 L302.1 268.1 L301.2 272.2 L299.8 276.2 L297.7 280.1 L295.5 283.1 L292.8 286.1 L289.8 289.2 L286.4 292.1 L282.8 295.0 L279.0 297.7 L275.1 300.2 L271.1 302.4 L267.4 304.1 L263.6 305.6 L259.6 307.1 L255.5 308.3 L251.2 309.4 L246.9 310.4 L242.6 311.1 L238.2 311.7 L233.9 312.1 L230.0 312.3 L226.0 312.2 L221.9 311.9 L217.8 311.5 L213.7 311.0 L209.6 310.4 L205.5 309.8 L201.5 309.1 L197.6 308.5 L193.8 307.9 L189.1 307.3 L184.6 306.9 L180.1 306.4 L175.7 305.9 L171.4 305.2 L167.2 304.4 L163.1 303.3 L159.1 301.8 L155.0 299.9 L150.9 297.6 L146.7 295.1 L142.7 292.4 L139.0 289.5 L135.5 286.5 L132.5 283.6 L130.1 280.7 L127.6 276.7 L126.0 272.7 L125.0 268.5 L124.5 264.3 L124.5 260.1 L124.7 256.0 L125.2 251.8 L126.2 247.6 L127.5 243.4 L129.3 239.3 L131.3 235.3 L133.7 231.6 L136.0 228.5 L138.5 225.6 L141.2 222.8 L144.1 220.1 L147.4 217.6 L151.1 215.2 L155.2 212.9 L158.4 211.4 L161.9 209.8 L165.7 208.4 L169.6 207.0 L173.7 205.7 L177.8 204.4 L182.1 203.3 L186.3 202.3 L190.4 201.5 L194.5 200.8 L198.5 200.3 L202.6 200.0 L206.7 199.8 L210.9 199.7 L215.0 199.7 L219.1 199.9 L223.2 200.1 L227.2 200.4 L231.0 200.8 L234.7 201.3 L239.2 201.9 L243.5 202.6 L247.6 203.5 L251.7 204.5 L255.6 205.6 L259.5 207.0 L263.3 208.6 L267.0 210.4 L270.8 212.6 L274.6 215.1 L278.5 217.9 L282.2 220.9 L285.7 223.9 L289.0 227.1 L291.9 230.1 L294.3 233.0 L296.9 236.8 L298.8 240.6 L300.2 244.4 L301.2 248.2 L301.8 252.1Z" fill="url(#kjshade)" fill-rule="evenodd"></path></g><path d="M129.8 262.6 L126.3 262.0 L122.0 262.4 L117.2 263.6 L112.3 265.3 L107.5 267.2 L103.3 268.9 L100.0 270.3 L92.9 274.1 L91.4 277.9 L93.0 280.0 L96.2 282.1 L100.7 284.0 L106.4 285.6 L110.0 286.3 L114.6 287.1 L119.8 288.0 L125.2 288.7 L130.3 289.2 L134.9 289.3 L138.5 288.9 L140.7 287.8 L141.8 284.8 L141.2 280.2 L139.3 274.9 L136.5 269.6 L133.2 265.2Z" transform="translate(3 6)" fill="#000000" opacity="0.26" fill-rule="evenodd" filter="url(#kjsh)"></path><g filter="url(#kjedge)"><path d="M129.8 262.6 L126.3 262.0 L122.0 262.4 L117.2 263.6 L112.3 265.3 L107.5 267.2 L103.3 268.9 L100.0 270.3 L92.9 274.1 L91.4 277.9 L93.0 280.0 L96.2 282.1 L100.7 284.0 L106.4 285.6 L110.0 286.3 L114.6 287.1 L119.8 288.0 L125.2 288.7 L130.3 289.2 L134.9 289.3 L138.5 288.9 L140.7 287.8 L141.8 284.8 L141.2 280.2 L139.3 274.9 L136.5 269.6 L133.2 265.2Z" fill="url(#kjpk)" fill-rule="evenodd"></path><path d="M129.8 262.6 L126.3 262.0 L122.0 262.4 L117.2 263.6 L112.3 265.3 L107.5 267.2 L103.3 268.9 L100.0 270.3 L92.9 274.1 L91.4 277.9 L93.0 280.0 L96.2 282.1 L100.7 284.0 L106.4 285.6 L110.0 286.3 L114.6 287.1 L119.8 288.0 L125.2 288.7 L130.3 289.2 L134.9 289.3 L138.5 288.9 L140.7 287.8 L141.8 284.8 L141.2 280.2 L139.3 274.9 L136.5 269.6 L133.2 265.2Z" fill="url(#kjshade)" fill-rule="evenodd"></path></g><path d="M97.7 278.0 L97.8 279.2 L97.7 280.3 L96.9 281.1 L95.9 281.8 L94.6 282.3 L93.3 282.7 L92.0 282.7 L90.7 282.6 L89.5 282.4 L88.5 282.0 L87.5 281.2 L86.7 280.2 L86.2 279.1 L86.0 278.0 L86.1 276.9 L86.5 275.8 L87.3 274.9 L88.4 274.2 L89.5 273.6 L90.7 273.3 L92.0 273.1 L93.3 273.2 L94.7 273.6 L95.9 274.3 L96.9 275.0 L97.6 275.9 L97.8 276.9Z" transform="translate(3 6)" fill="#000000" opacity="0.26" fill-rule="evenodd" filter="url(#kjsh)"></path><g filter="url(#kjedge)"><path d="M97.7 278.0 L97.8 279.2 L97.7 280.3 L96.9 281.1 L95.9 281.8 L94.6 282.3 L93.3 282.7 L92.0 282.7 L90.7 282.6 L89.5 282.4 L88.5 282.0 L87.5 281.2 L86.7 280.2 L86.2 279.1 L86.0 278.0 L86.1 276.9 L86.5 275.8 L87.3 274.9 L88.4 274.2 L89.5 273.6 L90.7 273.3 L92.0 273.1 L93.3 273.2 L94.7 273.6 L95.9 274.3 L96.9 275.0 L97.6 275.9 L97.8 276.9Z" fill="url(#kjpk)" fill-rule="evenodd"></path><path d="M97.7 278.0 L97.8 279.2 L97.7 280.3 L96.9 281.1 L95.9 281.8 L94.6 282.3 L93.3 282.7 L92.0 282.7 L90.7 282.6 L89.5 282.4 L88.5 282.0 L87.5 281.2 L86.7 280.2 L86.2 279.1 L86.0 278.0 L86.1 276.9 L86.5 275.8 L87.3 274.9 L88.4 274.2 L89.5 273.6 L90.7 273.3 L92.0 273.1 L93.3 273.2 L94.7 273.6 L95.9 274.3 L96.9 275.0 L97.6 275.9 L97.8 276.9Z" fill="url(#kjshade)" fill-rule="evenodd"></path></g><g filter="url(#kjfz)"><ellipse cx="128" cy="262" rx="3.5" ry="2.5" fill="#141312" opacity="0.8"></ellipse></g><path d="M142.9 302.4 L143.6 306.7 L144.8 312.5 L145.8 316.7 L156.3 314.5 L155.6 310.3 L154.4 304.5 L153.4 300.3Z" transform="translate(3 6)" fill="#000000" opacity="0.26" fill-rule="evenodd" filter="url(#kjsh)"></path><g filter="url(#kjedge)"><path d="M142.9 302.4 L143.6 306.7 L144.8 312.5 L145.8 316.7 L156.3 314.5 L155.6 310.3 L154.4 304.5 L153.4 300.3Z" fill="url(#kjpk)" fill-rule="evenodd"></path><path d="M142.9 302.4 L143.6 306.7 L144.8 312.5 L145.8 316.7 L156.3 314.5 L155.6 310.3 L154.4 304.5 L153.4 300.3Z" fill="url(#kjshadeT)" fill-rule="evenodd"></path></g><path d="M191.5 301.1 L190.7 305.5 L190.1 311.7 L189.9 316.3 L200.8 317.6 L201.7 313.2 L202.6 307.0 L202.9 302.5Z" transform="translate(3 6)" fill="#000000" opacity="0.26" fill-rule="evenodd" filter="url(#kjsh)"></path><g filter="url(#kjedge)"><path d="M191.5 301.1 L190.7 305.5 L190.1 311.7 L189.9 316.3 L200.8 317.6 L201.7 313.2 L202.6 307.0 L202.9 302.5Z" fill="url(#kjpk)" fill-rule="evenodd"></path><path d="M191.5 301.1 L190.7 305.5 L190.1 311.7 L189.9 316.3 L200.8 317.6 L201.7 313.2 L202.6 307.0 L202.9 302.5Z" fill="url(#kjshadeT)" fill-rule="evenodd"></path></g><path d="M235.7 297.8 L235.3 301.8 L235.3 307.7 L234.9 313.5 L235.2 317.6 L244.7 318.2 L245.5 314.2 L245.9 308.4 L246.6 302.6 L246.7 298.5Z" transform="translate(3 6)" fill="#000000" opacity="0.26" fill-rule="evenodd" filter="url(#kjsh)"></path><g filter="url(#kjedge)"><path d="M235.7 297.8 L235.3 301.8 L235.3 307.7 L234.9 313.5 L235.2 317.6 L244.7 318.2 L245.5 314.2 L245.9 308.4 L246.6 302.6 L246.7 298.5Z" fill="url(#kjpk)" fill-rule="evenodd"></path><path d="M235.7 297.8 L235.3 301.8 L235.3 307.7 L234.9 313.5 L235.2 317.6 L244.7 318.2 L245.5 314.2 L245.9 308.4 L246.6 302.6 L246.7 298.5Z" fill="url(#kjshadeT)" fill-rule="evenodd"></path></g><path d="M269.8 301.3 L270.2 304.7 L271.1 309.7 L271.5 314.8 L272.1 318.2 L279.7 317.8 L279.9 314.3 L279.7 309.2 L279.9 304.1 L279.9 300.6Z" transform="translate(3 6)" fill="#000000" opacity="0.26" fill-rule="evenodd" filter="url(#kjsh)"></path><g filter="url(#kjedge)"><path d="M269.8 301.3 L270.2 304.7 L271.1 309.7 L271.5 314.8 L272.1 318.2 L279.7 317.8 L279.9 314.3 L279.7 309.2 L279.9 304.1 L279.9 300.6Z" fill="url(#kjpk)" fill-rule="evenodd"></path><path d="M269.8 301.3 L270.2 304.7 L271.1 309.7 L271.5 314.8 L272.1 318.2 L279.7 317.8 L279.9 314.3 L279.7 309.2 L279.9 304.1 L279.9 300.6Z" fill="url(#kjshadeT)" fill-rule="evenodd"></path></g></svg>
