<svg xmlns="http://www.w3.org/2000/svg" width="400" height="400" viewBox="0 0 400 400">
<defs><linearGradient id="klgg" x1="0" y1="0" x2="1" y2="1"><stop offset="0" stop-color="#5F5E5B"></stop><stop offset="0.5" stop-color="#3D3C3A"></stop><stop offset="1" stop-color="#222120"></stop></linearGradient><radialGradient id="klgbg" cx="0.38" cy="0.34" r="0.75"><stop offset="0" stop-color="#6A6864"></stop><stop offset="0.55" stop-color="#403F3C"></stop><stop offset="1" stop-color="#1F1E1D"></stop></radialGradient><filter id="klgfz" x="-10%" y="-10%" width="120%" height="120%"><feTurbulence type="fractalNoise" baseFrequency="0.9" numOctaves="2" seed="3" result="n"></feTurbulence><feDisplacementMap in="SourceGraphic" in2="n" scale="4" xChannelSelector="R" yChannelSelector="G"></feDisplacementMap></filter><filter id="klggr" x="-10%" y="-10%" width="120%" height="120%"><feTurbulence type="fractalNoise" baseFrequency="1.6" numOctaves="2" seed="7" result="t"></feTurbulence><feColorMatrix in="t" type="matrix" values="0 0 0 0 0.62 0 0 0 0 0.61 0 0 0 0 0.59 0 0 0 0.55 -0.22" result="w"></feColorMatrix><feComposite in="w" in2="SourceGraphic" operator="in" result="wi"></feComposite><feMerge><feMergeNode in="SourceGraphic"></feMergeNode><feMergeNode in="wi"></feMergeNode></feMerge></filter><filter id="klgsh" x="-20%" y="-20%" width="140%" height="140%"><feGaussianBlur stdDeviation="4"></feGaussianBlur></filter></defs><path d="M25.9 330.5 L28.2 329.7 L31.0 328.5 L34.5 327.0 L38.5 325.5 L42.8 323.7 L47.2 321.6 L51.7 319.2 L55.9 316.4 L60.0 313.3 L63.8 310.4 L67.3 307.3 L70.2 304.1 L72.5 300.4 L74.0 296.0 L74.5 291.3 L74.1 286.5 L72.7 281.7 L70.8 277.2 L69.0 272.6 L67.7 268.0 L66.9 263.7 L66.1 260.1 L65.3 257.2 L65.2 255.0 L65.8 253.3 L67.2 251.5 L69.6 249.7 L72.6 248.0 L75.8 245.9 L79.2 243.7 L83.1 241.9 L87.2 240.3 L91.1 238.3 L95.1 236.1 L99.2 234.5 L103.4 233.9 L107.4 234.0 L110.9 234.9 L113.1 236.3 L115.6 237.4 L118.7 238.4 L122.0 240.1 L125.2 242.6 L128.6 245.2 L132.6 247.6 L136.7 250.0 L140.5 252.9 L144.2 255.9 L148.0 258.9 L151.7 261.9 L155.8 264.4 L160.3 265.8 L164.8 267.1 L169.5 267.9 L174.4 267.2 L179.1 265.3 L183.7 263.5 L188.7 262.5 L193.9 261.5 L198.7 259.5 L202.9 256.3 L207.0 253.0 L211.4 250.5 L215.8 248.0 L219.6 244.8 L222.6 241.1 L224.6 236.9 L225.9 232.4 L227.1 227.8 L227.7 222.9 L227.1 218.0 L225.8 213.2 L224.2 208.3 L222.3 203.5 L220.4 198.5 L218.8 193.4 L216.8 188.3 L213.7 184.0 L209.8 180.4 L206.2 177.0 L202.9 173.2 L199.6 169.8 L195.4 167.4 L190.7 166.1 L186.1 165.0 L181.5 164.1 L176.8 163.3 L172.3 162.2 L167.8 161.1 L163.4 160.5 L159.2 160.5 L155.2 160.5 L151.7 159.7 L149.2 157.8 L147.7 155.5 L146.7 153.8 L144.2 151.9 L141.1 149.5 L138.9 146.1 L137.8 142.0 L136.3 138.0 L134.2 134.2 L132.6 130.3 L132.5 126.3 L133.1 122.7 L133.5 119.4 L133.8 116.5 L134.9 113.8 L136.2 112.4 L138.2 110.5 L140.5 108.5 L142.9 106.1 L145.7 103.6 L149.1 101.5 L152.7 99.4 L156.3 97.0 L160.4 95.2 L164.7 94.0 L168.8 92.2 L172.6 90.0 L176.5 88.0 L180.4 86.3 L184.4 85.3 L188.2 85.1 L191.7 84.9 L195.0 84.4 L198.6 84.1 L202.3 84.6 L206.0 85.6 L209.8 87.0 L213.6 88.5 L217.7 89.3 L222.0 89.6 L226.2 90.7 L230.1 92.3 L234.1 93.7 L237.9 95.7 L241.2 98.1 L244.6 100.1 L248.0 101.9 L251.0 103.9 L254.1 105.3 L257.1 106.2 L260.3 108.2 L262.4 111.1 L264.0 114.3 L265.4 117.9 L266.5 121.7 L267.7 125.7 L269.6 129.7 L272.0 133.6 L274.0 137.8 L275.6 142.2 L277.9 146.6 L281.2 150.3 L285.0 153.5 L288.4 156.4 L292.0 159.1 L295.9 161.6 L299.7 164.5 L303.7 167.5 L308.0 170.0 L312.6 171.8 L317.3 173.1 L321.9 174.5 L326.2 176.5 L330.5 178.1 L335.0 178.8 L339.5 178.4 L343.8 176.8 L347.9 174.1 L351.7 171.3 L355.2 168.2 L358.4 164.6 L361.5 160.8 L364.7 157.0 L367.7 152.9 L369.8 148.2 L371.5 143.4 L372.9 138.6 L374.2 133.8 L375.4 129.0 L375.5 124.4 L374.3 120.0 L372.5 115.7 L370.5 111.6 L368.9 107.1 L367.4 102.6 L365.5 98.3 L363.2 94.2 L361.0 90.3 L359.0 86.5 L357.6 82.7 L356.8 79.2 L356.2 76.2 L355.9 73.7 L355.8 71.7 L356.5 68.9 L358.3 66.1 L361.1 63.4 L364.4 60.7 L368.0 57.8 L372.1 55.2 L376.3 53.0 L380.4 50.8 L384.3 48.7 L387.8 46.7 L390.6 44.9 L392.6 43.1 L389.9 38.8 L387.6 39.6 L384.7 40.9 L381.2 42.4 L377.2 44.3 L372.8 46.4 L368.4 48.9 L364.0 51.5 L359.5 54.1 L355.5 57.2 L352.2 61.0 L349.2 64.9 L347.0 69.2 L346.1 73.3 L346.1 77.5 L346.8 81.7 L348.3 85.8 L349.9 90.1 L351.4 94.5 L352.9 98.9 L354.6 103.3 L356.6 107.5 L358.8 111.4 L360.5 115.3 L361.2 119.1 L361.4 122.6 L361.2 125.5 L361.3 127.8 L361.3 131.4 L360.6 135.2 L359.3 139.1 L357.6 142.9 L355.8 146.7 L354.2 150.5 L352.4 154.2 L350.0 157.2 L347.4 159.5 L344.8 161.3 L342.2 162.2 L339.8 161.9 L338.1 161.3 L335.9 161.0 L333.2 160.8 L329.9 160.9 L326.1 160.7 L322.4 159.3 L318.8 157.2 L315.0 155.3 L311.0 153.6 L306.9 152.1 L303.1 150.3 L299.7 148.0 L296.5 145.8 L293.7 143.8 L291.8 141.2 L290.3 138.5 L288.5 135.6 L286.5 132.4 L285.3 128.5 L284.7 124.1 L283.5 119.7 L281.5 115.5 L278.9 111.2 L276.1 107.0 L272.8 103.0 L269.1 99.2 L265.4 95.4 L262.6 92.3 L259.5 89.9 L255.8 87.9 L252.0 85.9 L248.0 84.1 L243.6 82.9 L239.3 81.4 L235.0 79.6 L230.5 78.1 L226.2 76.4 L221.9 74.1 L217.5 72.7 L212.8 72.3 L208.1 72.2 L203.6 72.1 L199.3 71.9 L195.0 71.4 L190.7 71.2 L186.3 71.9 L181.8 73.1 L177.2 74.1 L172.4 74.9 L167.5 75.9 L162.6 77.1 L158.0 79.1 L153.7 82.0 L149.5 84.6 L145.1 86.7 L141.1 89.3 L137.4 92.2 L133.7 94.7 L130.2 97.3 L127.4 100.3 L125.0 103.5 L122.8 106.9 L120.5 111.5 L118.5 116.6 L118.0 122.0 L118.8 127.3 L119.7 132.6 L120.3 138.0 L121.2 143.5 L123.4 148.5 L126.5 152.9 L129.2 157.5 L131.4 162.3 L134.5 166.5 L138.7 169.0 L143.3 170.1 L147.8 171.1 L152.0 172.6 L156.3 174.5 L160.7 176.1 L165.3 177.0 L169.8 177.3 L174.3 177.7 L178.5 178.5 L182.3 179.6 L185.7 180.9 L188.5 182.5 L190.9 183.6 L193.3 184.4 L196.0 186.5 L198.2 189.8 L200.0 193.6 L202.2 197.3 L205.1 200.8 L207.9 204.4 L209.8 208.4 L211.1 212.4 L211.9 216.3 L212.2 219.9 L212.1 223.0 L212.2 225.6 L211.9 227.6 L210.4 229.1 L208.5 230.8 L206.7 233.1 L204.6 236.0 L202.3 239.2 L199.3 242.3 L195.5 244.2 L191.4 245.8 L187.7 248.1 L184.2 250.8 L180.5 252.8 L176.5 253.2 L172.9 252.7 L169.9 252.3 L167.8 252.4 L165.3 251.6 L162.7 250.1 L159.5 248.6 L155.9 247.0 L152.2 244.8 L148.4 242.3 L144.8 239.4 L141.4 236.0 L137.8 232.8 L133.7 230.1 L129.6 227.8 L125.5 225.3 L121.5 222.9 L116.9 221.6 L112.2 221.8 L107.1 222.4 L102.2 223.2 L97.1 224.0 L92.0 224.7 L86.6 225.3 L81.5 226.8 L76.8 229.2 L72.4 231.8 L68.1 234.4 L64.3 237.4 L61.2 240.9 L58.6 244.4 L56.1 248.1 L54.3 252.7 L53.7 257.7 L54.1 262.7 L55.6 267.4 L58.0 271.8 L60.3 276.1 L62.1 280.6 L63.5 284.8 L64.7 288.7 L65.7 292.0 L66.2 294.9 L65.7 297.4 L64.3 299.6 L62.1 302.1 L59.2 304.7 L55.7 307.1 L51.6 309.3 L47.3 311.4 L43.1 313.7 L38.9 316.0 L34.9 318.3 L31.3 320.4 L27.9 322.3 L25.1 324.0 L23.2 325.7Z" transform="translate(3 6)" fill="#000000" opacity="0.26" fill-rule="evenodd" filter="url(#klgsh)"></path><g filter="url(#klgfz)"><path d="M25.9 330.5 L28.2 329.7 L31.0 328.5 L34.5 327.0 L38.5 325.5 L42.8 323.7 L47.2 321.6 L51.7 319.2 L55.9 316.4 L60.0 313.3 L63.8 310.4 L67.3 307.3 L70.2 304.1 L72.5 300.4 L74.0 296.0 L74.5 291.3 L74.1 286.5 L72.7 281.7 L70.8 277.2 L69.0 272.6 L67.7 268.0 L66.9 263.7 L66.1 260.1 L65.3 257.2 L65.2 255.0 L65.8 253.3 L67.2 251.5 L69.6 249.7 L72.6 248.0 L75.8 245.9 L79.2 243.7 L83.1 241.9 L87.2 240.3 L91.1 238.3 L95.1 236.1 L99.2 234.5 L103.4 233.9 L107.4 234.0 L110.9 234.9 L113.1 236.3 L115.6 237.4 L118.7 238.4 L122.0 240.1 L125.2 242.6 L128.6 245.2 L132.6 247.6 L136.7 250.0 L140.5 252.9 L144.2 255.9 L148.0 258.9 L151.7 261.9 L155.8 264.4 L160.3 265.8 L164.8 267.1 L169.5 267.9 L174.4 267.2 L179.1 265.3 L183.7 263.5 L188.7 262.5 L193.9 261.5 L198.7 259.5 L202.9 256.3 L207.0 253.0 L211.4 250.5 L215.8 248.0 L219.6 244.8 L222.6 241.1 L224.6 236.9 L225.9 232.4 L227.1 227.8 L227.7 222.9 L227.1 218.0 L225.8 213.2 L224.2 208.3 L222.3 203.5 L220.4 198.5 L218.8 193.4 L216.8 188.3 L213.7 184.0 L209.8 180.4 L206.2 177.0 L202.9 173.2 L199.6 169.8 L195.4 167.4 L190.7 166.1 L186.1 165.0 L181.5 164.1 L176.8 163.3 L172.3 162.2 L167.8 161.1 L163.4 160.5 L159.2 160.5 L155.2 160.5 L151.7 159.7 L149.2 157.8 L147.7 155.5 L146.7 153.8 L144.2 151.9 L141.1 149.5 L138.9 146.1 L137.8 142.0 L136.3 138.0 L134.2 134.2 L132.6 130.3 L132.5 126.3 L133.1 122.7 L133.5 119.4 L133.8 116.5 L134.9 113.8 L136.2 112.4 L138.2 110.5 L140.5 108.5 L142.9 106.1 L145.7 103.6 L149.1 101.5 L152.7 99.4 L156.3 97.0 L160.4 95.2 L164.7 94.0 L168.8 92.2 L172.6 90.0 L176.5 88.0 L180.4 86.3 L184.4 85.3 L188.2 85.1 L191.7 84.9 L195.0 84.4 L198.6 84.1 L202.3 84.6 L206.0 85.6 L209.8 87.0 L213.6 88.5 L217.7 89.3 L222.0 89.6 L226.2 90.7 L230.1 92.3 L234.1 93.7 L237.9 95.7 L241.2 98.1 L244.6 100.1 L248.0 101.9 L251.0 103.9 L254.1 105.3 L257.1 106.2 L260.3 108.2 L262.4 111.1 L264.0 114.3 L265.4 117.9 L266.5 121.7 L267.7 125.7 L269.6 129.7 L272.0 133.6 L274.0 137.8 L275.6 142.2 L277.9 146.6 L281.2 150.3 L285.0 153.5 L288.4 156.4 L292.0 159.1 L295.9 161.6 L299.7 164.5 L303.7 167.5 L308.0 170.0 L312.6 171.8 L317.3 173.1 L321.9 174.5 L326.2 176.5 L330.5 178.1 L335.0 178.8 L339.5 178.4 L343.8 176.8 L347.9 174.1 L351.7 171.3 L355.2 168.2 L358.4 164.6 L361.5 160.8 L364.7 157.0 L367.7 152.9 L369.8 148.2 L371.5 143.4 L372.9 138.6 L374.2 133.8 L375.4 129.0 L375.5 124.4 L374.3 120.0 L372.5 115.7 L370.5 111.6 L368.9 107.1 L367.4 102.6 L365.5 98.3 L363.2 94.2 L361.0 90.3 L359.0 86.5 L357.6 82.7 L356.8 79.2 L356.2 76.2 L355.9 73.7 L355.8 71.7 L356.5 68.9 L358.3 66.1 L361.1 63.4 L364.4 60.7 L368.0 57.8 L372.1 55.2 L376.3 53.0 L380.4 50.8 L384.3 48.7 L387.8 46.7 L390.6 44.9 L392.6 43.1 L389.9 38.8 L387.6 39.6 L384.7 40.9 L381.2 42.4 L377.2 44.3 L372.8 46.4 L368.4 48.9 L364.0 51.5 L359.5 54.1 L355.5 57.2 L352.2 61.0 L349.2 64.9 L347.0 69.2 L346.1 73.3 L346.1 77.5 L346.8 81.7 L348.3 85.8 L349.9 90.1 L351.4 94.5 L352.9 98.9 L354.6 103.3 L356.6 107.5 L358.8 111.4 L360.5 115.3 L361.2 119.1 L361.4 122.6 L361.2 125.5 L361.3 127.8 L361.3 131.4 L360.6 135.2 L359.3 139.1 L357.6 142.9 L355.8 146.7 L354.2 150.5 L352.4 154.2 L350.0 157.2 L347.4 159.5 L344.8 161.3 L342.2 162.2 L339.8 161.9 L338.1 161.3 L335.9 161.0 L333.2 160.8 L329.9 160.9 L326.1 160.7 L322.4 159.3 L318.8 157.2 L315.0 155.3 L311.0 153.6 L306.9 152.1 L303.1 150.3 L299.7 148.0 L296.5 145.8 L293.7 143.8 L291.8 141.2 L290.3 138.5 L288.5 135.6 L286.5 132.4 L285.3 128.5 L284.7 124.1 L283.5 119.7 L281.5 115.5 L278.9 111.2 L276.1 107.0 L272.8 103.0 L269.1 99.2 L265.4 95.4 L262.6 92.3 L259.5 89.9 L255.8 87.9 L252.0 85.9 L248.0 84.1 L243.6 82.9 L239.3 81.4 L235.0 79.6 L230.5 78.1 L226.2 76.4 L221.9 74.1 L217.5 72.7 L212.8 72.3 L208.1 72.2 L203.6 72.1 L199.3 71.9 L195.0 71.4 L190.7 71.2 L186.3 71.9 L181.8 73.1 L177.2 74.1 L172.4 74.9 L167.5 75.9 L162.6 77.1 L158.0 79.1 L153.7 82.0 L149.5 84.6 L145.1 86.7 L141.1 89.3 L137.4 92.2 L133.7 94.7 L130.2 97.3 L127.4 100.3 L125.0 103.5 L122.8 106.9 L120.5 111.5 L118.5 116.6 L118.0 122.0 L118.8 127.3 L119.7 132.6 L120.3 138.0 L121.2 143.5 L123.4 148.5 L126.5 152.9 L129.2 157.5 L131.4 162.3 L134.5 166.5 L138.7 169.0 L143.3 170.1 L147.8 171.1 L152.0 172.6 L156.3 174.5 L160.7 176.1 L165.3 177.0 L169.8 177.3 L174.3 177.7 L178.5 178.5 L182.3 179.6 L185.7 180.9 L188.5 182.5 L190.9 183.6 L193.3 184.4 L196.0 186.5 L198.2 189.8 L200.0 193.6 L202.2 197.3 L205.1 200.8 L207.9 204.4 L209.8 208.4 L211.1 212.4 L211.9 216.3 L212.2 219.9 L212.1 223.0 L212.2 225.6 L211.9 227.6 L210.4 229.1 L208.5 230.8 L206.7 233.1 L204.6 236.0 L202.3 239.2 L199.3 242.3 L195.5 244.2 L191.4 245.8 L187.7 248.1 L184.2 250.8 L180.5 252.8 L176.5 253.2 L172.9 252.7 L169.9 252.3 L167.8 252.4 L165.3 251.6 L162.7 250.1 L159.5 248.6 L155.9 247.0 L152.2 244.8 L148.4 242.3 L144.8 239.4 L141.4 236.0 L137.8 232.8 L133.7 230.1 L129.6 227.8 L125.5 225.3 L121.5 222.9 L116.9 221.6 L112.2 221.8 L107.1 222.4 L102.2 223.2 L97.1 224.0 L92.0 224.7 L86.6 225.3 L81.5 226.8 L76.8 229.2 L72.4 231.8 L68.1 234.4 L64.3 237.4 L61.2 240.9 L58.6 244.4 L56.1 248.1 L54.3 252.7 L53.7 257.7 L54.1 262.7 L55.6 267.4 L58.0 271.8 L60.3 276.1 L62.1 280.6 L63.5 284.8 L64.7 288.7 L65.7 292.0 L66.2 294.9 L65.7 297.4 L64.3 299.6 L62.1 302.1 L59.2 304.7 L55.7 307.1 L51.6 309.3 L47.3 311.4 L43.1 313.7 L38.9 316.0 L34.9 318.3 L31.3 320.4 L27.9 322.3 L25.1 324.0 L23.2 325.7Z" fill="url(#klgg)" fill-rule="evenodd" filter="url(#klggr)"></path></g><path d="M29.5 323.4 L32.9 321.8 L36.7 319.9 L40.8 317.9 L45.2 315.7 L49.5 313.4 L53.8 310.9 L57.8 308.3 L61.5 305.6 L64.7 302.8 L67.3 299.9 L69.1 296.9 L70.1 293.5 L70.1 289.7 L69.4 285.6 L68.1 281.3 L66.5 276.9 L64.6 272.4 L62.8 268.0 L61.3 263.6 L60.1 259.4 L59.5 255.5 L59.7 251.9 L60.9 248.7 L62.9 246.0 L65.4 243.3 L68.5 240.7 L71.9 238.2 L75.8 235.8 L79.9 233.6 L84.3 231.6 L88.9 229.9 L93.5 228.4 L98.2 227.3 L102.8 226.6 L107.3 226.3 L111.6 226.4 L115.0 227.0 L118.5 228.2 L122.1 229.9 L125.8 232.0 L129.5 234.4 L133.2 237.1 L137.0 239.9 L140.7 242.8 L144.5 245.6 L148.2 248.4 L151.9 251.0 L155.6 253.3 L159.2 255.3 L162.8 256.8 L166.3 257.8 L169.7 258.2 L173.6 258.0 L177.8 257.3 L182.1 256.2 L186.4 254.7 L190.8 252.8 L195.1 250.7 L199.2 248.3 L203.2 245.7 L206.8 242.9 L210.2 240.0 L213.1 237.0 L215.6 234.0 L217.5 231.0 L218.9 228.1 L219.7 224.7 L219.9 221.0 L219.6 217.0 L218.8 212.8 L217.7 208.4 L216.1 204.0 L214.2 199.5 L212.0 195.1 L209.5 190.9 L206.8 186.9 L204.0 183.1 L201.1 179.8 L198.1 176.8 L195.2 174.7 L191.9 173.0 L188.2 171.5 L184.2 170.3 L180.0 169.4 L175.6 168.5 L171.0 167.8 L166.5 167.1 L162.1 166.3 L157.7 165.5 L153.6 164.6 L149.8 163.4 L146.3 162.0 L143.2 160.3 L140.6 158.2 L137.8 155.1 L135.1 151.5 L132.7 147.5 L130.6 143.3 L128.7 138.8 L127.2 134.2 L126.2 129.5 L125.6 124.9 L125.5 120.4 L126.0 116.0 L127.1 112.0 L128.9 108.4 L130.6 105.9 L132.8 103.5 L135.4 100.9 L138.3 98.4 L141.6 95.9 L145.1 93.5 L148.9 91.1 L152.9 88.8 L157.0 86.6 L161.3 84.6 L165.7 82.7 L170.1 81.0 L174.5 79.5 L178.8 78.3 L183.1 77.2 L187.3 76.5 L191.2 76.1 L195.0 75.9 L198.9 76.0 L202.9 76.4 L207.1 76.9 L211.3 77.7 L215.6 78.6 L219.8 79.8 L224.1 81.0 L228.4 82.4 L232.6 84.0 L236.7 85.6 L240.7 87.3 L244.6 89.2 L248.3 91.0 L251.9 93.0 L255.2 94.9 L258.4 96.9 L261.2 98.8 L264.7 101.8 L267.6 105.1 L270.1 108.7 L272.2 112.6 L274.0 116.6 L275.6 120.8 L277.1 125.0 L278.7 129.1 L280.3 133.1 L282.1 137.0 L284.1 140.5 L286.5 143.8 L289.4 146.7 L292.4 149.1 L295.8 151.6 L299.5 154.0 L303.3 156.4 L307.4 158.6 L311.5 160.7 L315.7 162.6 L319.9 164.2 L324.0 165.6 L328.0 166.8 L331.9 167.5 L335.5 167.9 L338.8 167.9 L341.8 167.4 L345.1 166.2 L348.3 164.3 L351.3 161.9 L354.2 158.9 L356.9 155.6 L359.4 151.8 L361.7 147.8 L363.7 143.6 L365.4 139.3 L366.8 135.0 L367.8 130.6 L368.4 126.4 L368.4 123.0 L367.8 119.3 L366.9 115.5 L365.5 111.4 L363.8 107.3 L362.0 103.1 L360.0 98.8 L358.1 94.6 L356.2 90.4 L354.5 86.3 L353.0 82.3 L351.8 78.5 L351.1 74.9 L351.0 71.5 L351.4 68.5 L352.8 64.9 L355.2 61.5 L358.3 58.4 L361.9 55.4 L366.0 52.7 L370.2 50.1 L374.6 47.7 L378.8 45.6 L382.7 43.6 L386.2 41.8" fill="none" stroke="#9A9893" stroke-width="2.2" stroke-linecap="round" opacity="0.4" filter="url(#klgfz)"></path><g fill="none" stroke="#3A3937" stroke-width="1.1" stroke-linecap="round" opacity="0.85"><path d="M289.4 148.6 Q290.8 156.3 291.6 161.6"></path><path d="M353.0 84.3 Q352.9 81.8 351.2 76.6"></path><path d="M303.3 158.3 Q308.6 160.1 310.0 162.3"></path><path d="M367.8 132.6 Q362.0 131.4 358.6 129.8"></path><path d="M215.6 236.0 Q221.7 235.0 229.2 234.0"></path><path d="M366.8 136.9 Q365.5 132.4 367.4 129.1"></path><path d="M203.2 247.6 Q206.0 245.8 209.4 246.8"></path><path d="M210.2 242.0 Q212.7 238.3 214.9 235.1"></path><path d="M153.6 166.5 Q151.4 160.8 148.1 153.9"></path><path d="M363.8 109.3 Q358.1 110.1 353.5 109.7"></path><path d="M126.2 131.5 Q127.0 133.3 125.1 138.0"></path><path d="M370.2 52.0 Q376.3 51.6 380.2 49.2"></path></g><g font-family="Nunito, sans-serif" font-weight="900" fill="#E86A6A"><text x="260" y="320" font-size="22">1m?</text></g></svg>
