<svg xmlns="http://www.w3.org/2000/svg" width="400" height="400" viewBox="0 0 400 400">
<defs><linearGradient id="stg" x1="0" y1="0" x2="1" y2="1"><stop offset="0" stop-color="#5F5E5B"></stop><stop offset="0.5" stop-color="#3D3C3A"></stop><stop offset="1" stop-color="#222120"></stop></linearGradient><radialGradient id="stbg" cx="0.38" cy="0.34" r="0.75"><stop offset="0" stop-color="#6A6864"></stop><stop offset="0.55" stop-color="#403F3C"></stop><stop offset="1" stop-color="#1F1E1D"></stop></radialGradient><filter id="stfz" x="-10%" y="-10%" width="120%" height="120%"><feTurbulence type="fractalNoise" baseFrequency="0.9" numOctaves="2" seed="3" result="n"></feTurbulence><feDisplacementMap in="SourceGraphic" in2="n" scale="4" xChannelSelector="R" yChannelSelector="G"></feDisplacementMap></filter><filter id="stgr" x="-10%" y="-10%" width="120%" height="120%"><feTurbulence type="fractalNoise" baseFrequency="1.6" numOctaves="2" seed="7" result="t"></feTurbulence><feColorMatrix in="t" type="matrix" values="0 0 0 0 0.62 0 0 0 0 0.61 0 0 0 0 0.59 0 0 0 0.55 -0.22" result="w"></feColorMatrix><feComposite in="w" in2="SourceGraphic" operator="in" result="wi"></feComposite><feMerge><feMergeNode in="SourceGraphic"></feMergeNode><feMergeNode in="wi"></feMergeNode></feMerge></filter><filter id="stsh" x="-20%" y="-20%" width="140%" height="140%"><feGaussianBlur stdDeviation="4"></feGaussianBlur></filter></defs><defs><radialGradient id="stheat" cx="0.5" cy="0.55" r="0.5"><stop offset="0" stop-color="#FF7A3D" stop-opacity="0.55"></stop><stop offset="1" stop-color="#FF7A3D" stop-opacity="0"></stop></radialGradient></defs><circle cx="204" cy="205" r="130" fill="url(#stheat)"></circle><g style="filter: sepia(0.9) saturate(3.2) hue-rotate(-18deg) brightness(0.95)"><ellipse cx="208" cy="292" rx="96" ry="22" fill="#000000" opacity="0.32" filter="url(#stsh)"></ellipse><g filter="url(#stfz)"><path d="M192 108 C236 98 288 128 292 186 C296 238 266 284 206 290 C150 296 112 262 106 212 C100 160 132 118 192 108 Z" fill="url(#stbg)" filter="url(#stgr)"></path></g><path d="M150 150 C164 132 184 124 206 124" fill="none" stroke="#A3A19C" stroke-width="7" stroke-linecap="round" opacity="0.28" filter="url(#stsh)"></path><g fill="none" stroke="#403F3D" stroke-width="1" stroke-linecap="round" opacity="0.8"><path d="M123.3 245.7 L118.6 254.6"></path><path d="M213.4 278.4 L217.3 281.3"></path><path d="M250.4 269.8 L253.4 280.4"></path><path d="M135.0 257.3 L130.5 264.9"></path><path d="M284.5 238.7 L292.7 237.4"></path><path d="M278.7 234.1 L289.2 232.1"></path><path d="M132.5 137.6 L129.0 135.2"></path><path d="M105.8 212.5 L101.2 215.2"></path><path d="M201.1 279.6 L197.0 287.2"></path><path d="M120.4 230.9 L111.4 231.1"></path><path d="M149.1 132.5 L145.3 123.5"></path><path d="M122.8 155.0 L117.9 152.3"></path><path d="M225.4 117.8 L229.9 113.3"></path><path d="M246.0 132.7 L246.6 127.6"></path><path d="M293.1 207.9 L301.6 209.2"></path><path d="M289.5 197.2 L293.8 193.9"></path><path d="M149.4 273.3 L150.5 281.4"></path><path d="M121.0 232.4 L116.7 239.6"></path><path d="M239.6 276.8 L242.1 286.3"></path><path d="M174.9 281.9 L177.8 287.0"></path><path d="M186.1 284.5 L188.9 292.4"></path><path d="M250.8 126.9 L256.6 125.4"></path><path d="M193.2 279.5 L188.5 285.4"></path><path d="M125.9 150.7 L118.8 148.6"></path><path d="M172.2 278.8 L165.6 282.9"></path><path d="M279.4 236.0 L287.5 242.9"></path><path d="M280.7 237.5 L284.4 245.2"></path><path d="M282.0 244.1 L291.3 245.8"></path><path d="M107.8 181.9 L102.9 179.0"></path><path d="M119.4 170.6 L113.6 169.2"></path><path d="M261.0 267.5 L266.2 270.0"></path><path d="M125.2 151.9 L119.3 149.8"></path><path d="M104.9 201.9 L101.3 199.2"></path><path d="M285.9 167.6 L293.9 162.3"></path><path d="M290.9 180.0 L299.2 177.2"></path><path d="M217.0 284.0 L224.6 289.2"></path><path d="M165.7 277.9 L166.8 283.3"></path><path d="M232.7 273.3 L235.3 277.4"></path><path d="M107.6 199.2 L102.5 202.6"></path><path d="M280.9 159.2 L289.5 157.4"></path><path d="M159.9 276.1 L155.9 280.9"></path><path d="M235.6 127.8 L233.8 118.4"></path><path d="M286.3 208.1 L292.5 213.0"></path><path d="M278.1 163.6 L284.9 165.2"></path><path d="M271.7 143.7 L274.4 138.6"></path><path d="M252.5 265.7 L253.6 272.4"></path><path d="M153.0 131.9 L149.8 127.7"></path><path d="M270.1 147.0 L278.9 143.4"></path><path d="M265.5 141.9 L270.0 137.0"></path><path d="M228.5 122.6 L232.6 119.2"></path><path d="M108.3 210.5 L104.9 214.4"></path><path d="M214.1 282.0 L216.2 285.7"></path><path d="M284.6 170.9 L288.6 171.4"></path><path d="M172.0 276.5 L167.3 283.5"></path><path d="M158.1 276.5 L156.0 286.4"></path><path d="M114.0 201.5 L106.3 204.3"></path><path d="M146.1 129.6 L144.0 123.6"></path><path d="M282.1 171.5 L290.9 167.8"></path><path d="M281.3 172.3 L285.5 167.1"></path><path d="M194.6 287.2 L196.0 294.8"></path></g><g fill="none" stroke="#2A2928" stroke-width="1.4" opacity="0.35"><path d="M130 220 C160 240 200 250 250 236"></path><path d="M170 140 C200 150 230 170 250 200"></path></g></g><g fill="none" stroke="#FFB27A" stroke-width="2" opacity="0.7"><path d="M150 170 C170 160 180 175 196 166"></path><path d="M200 230 C220 222 232 236 250 226"></path></g><path d="M160 118 C146 100 174 88 160 70 C146 52 170 42 160 28" fill="none" stroke="#C9C3B8" stroke-width="6" stroke-linecap="round" opacity="0.65"></path><path d="M200 118 C186 100 214 88 200 70 C186 52 210 42 200 28" fill="none" stroke="#C9C3B8" stroke-width="6" stroke-linecap="round" opacity="0.65"></path><path d="M240 118 C226 100 254 88 240 70 C226 52 250 42 240 28" fill="none" stroke="#C9C3B8" stroke-width="6" stroke-linecap="round" opacity="0.65"></path></svg>
